<svg id="Layer_1" data-name="Layer 1" xmlns="http://www.w3.org/2000/svg" viewBox="0 0 174.09 147.38"><defs><style>.cls-1{fill:#fff;}</style></defs><path class="cls-1" d="M91.3,160q-36.39,0-72.79,0c-10.26,0-14.1-3.82-14.1-14q0-60,0-120c0-8.83,4.24-13.38,13-13.39q74.16-.11,148.33,0c8.42,0,12.73,4.67,12.73,13.22q0,60.66,0,121.32c0,8.32-4.27,12.73-12.58,12.75Q128.62,160.09,91.3,160Zm.37-112c-22.6,0-45.19.09-67.79-.09-3.94,0-5.32.67-5.29,5,.23,29.47.18,58.93,0,88.4,0,3.62.58,4.83,4.59,4.82q68.23-.25,136.48,0c3.35,0,4.62-.52,4.59-4.33q-.27-44.66,0-89.32c0-4-1.23-4.6-4.84-4.58C136.86,48.1,114.26,48,91.67,48ZM24.29,35.39c3.5-.14,5.37-2.14,5.41-5.15.05-3.25-1.88-5.44-5.4-5.36-3.2.06-5.16,1.87-5.2,5.08C19.05,33.39,21.08,35.15,24.29,35.39ZM59,24.83c-3.66.1-5.65,2.16-5.62,5.38a4.79,4.79,0,0,0,5.18,5.12c3.47,0,5.42-1.94,5.43-5.32C64,26.8,61.94,25.13,59,24.83ZM41.89,35.41c3-.32,4.91-2,4.93-5.22,0-3.47-1.9-5.39-5.37-5.31-3.16.08-5.12,1.73-5.08,5.1S38.33,35.16,41.89,35.41Z" transform="translate(-4.41 -12.66)"/><path class="cls-1" d="M127.19,105a20.64,20.64,0,0,1-19.49-13.2,20.33,20.33,0,0,1,4.48-21.89c1.67-1.66,2.61-2.12,3.84.44,2,4.23,4.62,8.21,6.58,12.47,1.6,3.47,3.73,5,7.71,4.73,4.69-.36,9.44.07,14.15-.14,3-.13,3.25.92,2.44,3.45A20.64,20.64,0,0,1,127.19,105Z" transform="translate(-4.41 -12.66)"/><path class="cls-1" d="M89.56,71.73c0,1.53,0,3.06,0,4.58-.16,5.42-1.55,6.35-6,3.51-2.17-1.38-2.64.07-3.49,1.21q-4.92,6.6-9.75,13.26c-2,2.75-4.26,3.22-7,1.06a7.83,7.83,0,0,0-.72-.57c-2.93-1.8-5.65-6-8.41-5.33s-4.48,5-6.62,7.77c-2,2.53-3.79,5.16-5.8,7.65-1.36,1.68-3.15,2.62-5.15,1s-1.7-3.44-.37-5.25Q43.17,91.29,50.17,82c1.7-2.26,3.72-2.38,5.94-.7,2.55,1.92,5.22,3.72,7.64,5.8,1.59,1.38,2.43,1.1,3.52-.49,2.25-3.26,4.53-6.51,7-9.58,1.51-1.85,1.95-2.91-.41-4.58-3-2.11-2.55-4.28.83-5.58s7-2.19,10.34-3.5,4.9-.26,4.71,3.37c-.08,1.68,0,3.36,0,5Z" transform="translate(-4.41 -12.66)"/><path class="cls-1" d="M127.38,116.75c5.49,0,11,.13,16.45,0,3-.1,4,1.22,4.11,4,.57,10.34.63,10.34-9.81,10.34-9,0-18-.11-27,0-3.77.07-5.07-1.31-5-5.09.21-10.83-.67-9.19,9.33-9.28C119.46,116.72,123.42,116.75,127.38,116.75Z" transform="translate(-4.41 -12.66)"/><path class="cls-1" d="M91.42,112.66c0,4.88-.06,9.75,0,14.63,0,2.65-1,4-3.73,4-12,0-10.83,1-10.8-9.78,0-7.32.16-14.64-.06-21.94-.12-3.91,1.15-5.49,5.2-5.44,10.85.12,9.31-.24,9.36,9.38C91.44,106.57,91.42,109.61,91.42,112.66Z" transform="translate(-4.41 -12.66)"/><path class="cls-1" d="M70.4,117.58a68.09,68.09,0,0,0,.06,8.21c.56,4.65-1.57,5.7-5.79,5.59-8.61-.23-8.62,0-8.61-8.82,0-5,0-10,0-15,0-2.64,1.1-3.84,3.85-3.81,13,.13,10.22-1.13,10.49,9.77C70.43,114.84,70.4,116.21,70.4,117.58Z" transform="translate(-4.41 -12.66)"/><path class="cls-1" d="M137,81.24c-6.06,2-10-1.44-12.23-7.87A17.31,17.31,0,0,0,123.54,71c-3.66-6.81-3.28-7.44,4.45-7.33,8.44.13,16,5.91,18.83,14.09,1.1,3.1.16,3.77-2.72,3.55C142.13,81.11,140.14,81.24,137,81.24Z" transform="translate(-4.41 -12.66)"/><path class="cls-1" d="M49.33,122.08c0,9.66-.2,9.77-10.47,9-2.63-.19-3.93-1.24-3.88-3.9,0-1.52,0-3,0-4.56.11-11.15-1.45-9.63,10.61-9.79,2.68,0,4,.93,3.76,3.73C49.21,118.42,49.32,120.25,49.33,122.08Z" transform="translate(-4.41 -12.66)"/></svg>