<svg id="Layer_1" data-name="Layer 1" xmlns="http://www.w3.org/2000/svg" viewBox="0 0 149.27 155.62"><defs><style>.cls-1{fill:#fff;}</style></defs><path class="cls-1" d="M125.61,164.81c-2.19-1.17-3.59-2.79-3.44-5.48,0-.85-4.37-2.44-5-1.8-2.18,2.37-5.62,2.19-7.86-.33-1.54-1.74-3.28-3.31-4.93-5a4.92,4.92,0,0,1-1.63-2.67c-.1-.69-.42-1-1.11-.88a6.91,6.91,0,0,1-.91,0H19.91c-.4,0-.81,0-1.21,0a2.28,2.28,0,1,1,0-4.55,43.14,43.14,0,0,1,4.55,0c1.34.13,1.53-.38,1.53-1.59-.05-10.84,0-21.68,0-32.53a4.45,4.45,0,0,1,.22-1.94,2.17,2.17,0,0,1,2.29-1.39,2,2,0,0,1,2,1.7,9.15,9.15,0,0,1,.14,1.81q0,16.26,0,32.53c0,1.12.23,1.46,1.39,1.41,2.63-.1,5.27-.06,7.9,0,.94,0,1.28-.16,1.28-1.21q0-35.86,0-71.74a1.65,1.65,0,0,0-.77-1.62,3.9,3.9,0,0,1-1.76-3.35c0-2.13,0-4.26,0-6.39a4.25,4.25,0,0,1,3.92-4.26,12.27,12.27,0,0,1,1.82-.1h91.65c4.33,0,5.88,1.54,5.88,5.82,0,1.32,0,2.64,0,4a4.8,4.8,0,0,1-2.17,4.56c-.52.32-.47.71-.47,1.15q0,12.69,0,25.38a1.24,1.24,0,0,0,.49,1.17,4.73,4.73,0,0,1,1.84,4c0,.75.24,1.13.94,1.29a3.78,3.78,0,0,1,.56.21c1.67.74,3,1.16,5-.13a3.46,3.46,0,0,0,1.85-3.57q0-23.1,0-46.21a2.1,2.1,0,0,0-1.1-2Q119.54,33,91.54,14.84a1.73,1.73,0,0,0-2.15-.05Q59.95,33,30.45,51.09a2.08,2.08,0,0,0-1.06,2.09q0,21.89,0,43.78a11.66,11.66,0,0,1-.06,1.67A2.12,2.12,0,0,1,27,100.7a2.23,2.23,0,0,1-2.27-2.19,6.91,6.91,0,0,1,0-.91q0-23.11,0-46.21a3.51,3.51,0,0,1,1.86-3.34Q57.69,28.94,88.76,9.74a2.94,2.94,0,0,1,3.5.06Q122,29,151.72,48.19a3.21,3.21,0,0,1,1.56,3c0,17.12,0,34.25,0,51.37a3.33,3.33,0,0,0,1.17,2.75c1.35,1.22,2.61,2.55,3.88,3.85,2.17,2.22,2.25,4.9.12,7.13a1.32,1.32,0,0,0-.24,1.84,5.42,5.42,0,0,1,.59,1.38,2.42,2.42,0,0,0,2.79,2.16,4.25,4.25,0,0,1,3.88,3.85,62.08,62.08,0,0,1,0,10,4.43,4.43,0,0,1-4.38,4c-1.21.07-1.88.4-2.08,1.61a3,3,0,0,1-.41,1,2.4,2.4,0,0,0,.37,3.38,4.4,4.4,0,0,1-.3,6.08q-3,3.19-6.23,6.23a4.69,4.69,0,0,1-6.7-.07,1.47,1.47,0,0,0-2.09-.28,2,2,0,0,1-.55.26c-1.79.43-2.86,1.27-2.94,3.39-.07,1.87-1.75,2.8-3.28,3.62Zm-16.12-61.09c2.75-1.9,4.84-2.39,6.46-.87s2.82,1.09,4.32.27a2.63,2.63,0,0,1,.7-.28c.94-.15,1.26-.64,1.27-1.63a4.72,4.72,0,0,1,5-4.79c1.62,0,3.25-.09,4.86,0,1.15.07,1.43-.27,1.42-1.41q-.09-11.48,0-23c0-1.27-.3-1.59-1.57-1.58-11.75,0-23.5,0-35.25,0-2.38,0-3.56-.79-3.54-2.36s1.19-2.31,3.59-2.31H132c1.29,0,3,.56,3.78-.25s.1-2.51.26-3.81-.27-1.65-1.62-1.65q-44.14.07-88.3,0c-1.31,0-3.06-.46-3.81.21S42.14,63,42,64.3s.21,1.6,1.52,1.59c13.32-.06,26.65,0,40,0a15.65,15.65,0,0,1,1.67.07,2.2,2.2,0,0,1,2.08,2.22,2.37,2.37,0,0,1-2.14,2.36,10.42,10.42,0,0,1-1.37,0q-18.84,0-37.69,0c-1.1,0-1.42.23-1.42,1.39q.06,35.42,0,70.83c0,1.06.13,1.51,1.36,1.45,2.48-.12,5-.11,7.44,0,1.17,0,1.4-.31,1.39-1.42,0-8.26,0-16.51,0-24.77,0-2.73,1.49-4.24,4.2-4.24,3.75,0,7.5,0,11.24,0,1.11,0,1.3-.32,1.3-1.35,0-8.26,0-16.51,0-24.77,0-2.82,1.48-4.3,4.3-4.3q14.65,0,29.33,0c2.88,0,4.36,1.49,4.36,4.4C109.49,93,109.49,98.28,109.49,103.72Zm45.7,9.64a1.31,1.31,0,0,0-.47-1.17l-3.66-3.65c-1.94-1.93-2-2-3.89-.06a2.6,2.6,0,0,1-3.53.46,14.34,14.34,0,0,0-4.13-1.83c-3-.59-4.32-2.12-3.82-5.16.12-.72-.22-1-.95-1-1.82,0-3.64,0-5.47,0-2.45,0-2.45,0-2.46,2.47,0,2-.45,2.59-2.36,3.13a25.49,25.49,0,0,0-5.3,2.18c-1.92,1-2.51.95-4.11-.64a7.59,7.59,0,0,1-.75-.75c-.55-.73-1-.79-1.66-.05-1.22,1.35-2.56,2.59-3.85,3.88-1.62,1.61-1.62,1.61,0,3.25s1.65,2.15.69,3.85a26,26,0,0,0-2.4,5.86,2.41,2.41,0,0,1-2.48,2c-.61,0-1.23,0-1.83,0-.91-.1-1.24.18-1.2,1.15.09,1.72,0,3.44,0,5.17,0,2.53,0,2.53,2.49,2.55,1.9,0,2.49.44,3,2.27a26.49,26.49,0,0,0,2.48,5.82,2.42,2.42,0,0,1-.47,3.28,11.84,11.84,0,0,1-1.18,1.17c-.81.61-.62,1,0,1.66,1.59,1.5,3.13,3,4.62,4.62.64.67,1.08.78,1.67,0,.31-.4.72-.71,1.07-1.08a2.52,2.52,0,0,1,3.52-.49,24.49,24.49,0,0,0,6,2.47,2.41,2.41,0,0,1,2,2.66,15.49,15.49,0,0,1,0,1.67c-.14,1,.31,1.18,1.21,1.16,2.12-.06,4.25-.08,6.37,0,1.08,0,1.48-.28,1.32-1.34a6.25,6.25,0,0,1,0-1.06c0-2,.44-2.61,2.31-3.18a24.87,24.87,0,0,0,5.7-2.4,2.51,2.51,0,0,1,3.51.54,11.63,11.63,0,0,1,.85.87c.66.89,1.21.94,2,.05a57.88,57.88,0,0,1,4.29-4.29c.92-.82.93-1.41,0-2.12-.28-.21-.49-.51-.76-.74A2.6,2.6,0,0,1,153,143a23.24,23.24,0,0,0,2.42-5.85,2.48,2.48,0,0,1,2.62-2c.61,0,1.22-.05,1.82,0,.78.07,1.06-.18,1-1-.06-2.28-.07-4.56,0-6.83,0-.92-.33-1.14-1.13-1a9.92,9.92,0,0,1-1.22,0c-2.1,0-2.59-.38-3.22-2.43a26.21,26.21,0,0,0-2-4.88c-1.31-2.41-1.26-2.74.74-4.7A7.76,7.76,0,0,1,155.19,113.36Zm-81.4,30.77c4.4,0,8.8,0,13.21,0,.85,0,1.23-.1,1.22-1.12,0-7.85,0-15.69,0-23.54,0-.72,0-1.24-1-1.2-2.07.08-4.15.06-6.22,0-.84,0-1,.28-1,1,0,2.32,0,4.65,0,7,0,1.82-.77,2.64-2.53,2.67q-3.72.06-7.44,0a2.24,2.24,0,0,1-2.5-2.54c0-2.38,0-4.76,0-7.13,0-.79-.2-1-1-1-2,.06-4.05.09-6.07,0-1-.05-1.14.36-1.13,1.22q0,11.7,0,23.39c0,1,.24,1.27,1.24,1.26C65,144.1,69.38,144.13,73.79,144.13Zm15.5-30.4h12c.79,0,1.39.08,1.33-1.12a4.43,4.43,0,0,1,1.54-3.35,1.86,1.86,0,0,0,.75-1.41q0-9.49,0-19c0-.72-.22-1-1-1-2.08,0-4.15,0-6.23,0-.8,0-1,.23-1,1,.05,2.33,0,4.66,0,7,0,1.81-.78,2.67-2.51,2.7-2.48,0-5,0-7.45,0-1.77,0-2.5-.85-2.52-2.68,0-2.33,0-4.66,0-7,0-.78-.19-1.06-1-1-2,0-4,.08-6.08,0-1,0-1.12.37-1.12,1.22,0,7.8,0,15.6,0,23.4,0,1,.29,1.24,1.26,1.23C81.29,113.7,85.29,113.73,89.29,113.73Zm14.91,4.58c-3.64,0-7.07,0-10.51,0-.73,0-.93.21-.93.93q0,12,0,24c0,.92.4.94,1.08.93,3,0,6.07,0,9.1,0h1.85a21,21,0,0,1-1.06-2.59,2.29,2.29,0,0,0-2.48-2A4.48,4.48,0,0,1,97,135q-.07-4.47,0-8.95a4.48,4.48,0,0,1,4.16-4.41c1.47,0,2.21-.48,2.48-1.87A11.19,11.19,0,0,1,104.2,118.31ZM88.82,90.92c0,3.1,0,3,2.1,3.1,1,0,1.34-.24,1.25-1.25a17.89,17.89,0,0,1,0-3.19c.13-1.27-.19-1.71-1.6-1.71s-2,.39-1.76,1.84A7,7,0,0,1,88.82,90.92ZM72.1,121.33c0,.76,0,1.52,0,2.27,0,.57.14.76.75.81,2.61.21,2.6.24,2.6-2.42a14.36,14.36,0,0,1,0-2c.17-1.32-.22-1.8-1.66-1.76s-2,.29-1.71,1.71A7.72,7.72,0,0,1,72.1,121.33Z" transform="translate(-16.36 -9.19)"/><path class="cls-1" d="M90.26,36.79c-1.26,0-2.53,0-3.79,0A2.34,2.34,0,0,1,84,34.49a2.26,2.26,0,0,1,2.44-2.32c2.68,0,5.36-.05,8,0a2.16,2.16,0,0,1,2.33,2.25,2.29,2.29,0,0,1-2.42,2.35C93,36.83,91.63,36.79,90.26,36.79Z" transform="translate(-16.36 -9.19)"/><path class="cls-1" d="M90.26,45.91c-1.26,0-2.53,0-3.79,0A2.33,2.33,0,0,1,84,43.61a2.27,2.27,0,0,1,2.44-2.32c2.68,0,5.36,0,8,0a2.16,2.16,0,0,1,2.33,2.25,2.29,2.29,0,0,1-2.42,2.35C93,46,91.63,45.91,90.26,45.91Z" transform="translate(-16.36 -9.19)"/><path class="cls-1" d="M117.66,130.43a13.64,13.64,0,0,1,27.27.32,13.64,13.64,0,1,1-27.27-.32Zm22.58.22a9,9,0,1,0-8.92,8.95A9,9,0,0,0,140.24,130.65Z" transform="translate(-16.36 -9.19)"/></svg>