<svg id="Layer_1" data-name="Layer 1" xmlns="http://www.w3.org/2000/svg" viewBox="0 0 105.18 157.48"><defs><style>.cls-1{fill:#fff;}</style></defs><path class="cls-1" d="M91.34,144.87A12.09,12.09,0,0,1,96,149.05c3.21,5.3.7,11.5-5.54,13.76-4.75,1.72-9.58,1.33-14.38.35-13-2.65-24.18-8.59-33-18.55-9.84-11.1-12.47-23.7-7.09-37.7,4.08-10.62,10.24-20,17.36-28.79A160.31,160.31,0,0,1,65.77,64.48c.93-.91,1.49-1.17,2.68-.19a31.88,31.88,0,0,0,39.19,1.38c1.19-.83,1.86-.89,2.88.2,7.54,8,15,16.11,20.56,25.75A59.1,59.1,0,0,1,137.69,108c2.37,10.48-.92,19.22-8.88,26.17-10.07,8.8-22,11.86-35.15,10.67A4.38,4.38,0,0,0,91.34,144.87ZM79.5,139.48l0,.26.16-.06-.23-.17-.3-.44c-.37-.56-.75-1.12-1.11-1.69-2.2-3.57-2.59-7.29-.64-11a10.31,10.31,0,0,1,9.19-5.82,29.72,29.72,0,0,1,3,.13c0-.19.09-.27.07-.3l-1.07-1.26a21.17,21.17,0,0,1-5.51-14.66,33.24,33.24,0,0,1,2.36-11.86c1.39-3.52.31-6.92-2.62-8.71-3.7-2.26-8.27-.68-10,3.53a42.21,42.21,0,0,0-3,22.93c.24,1.57-.08,2.3-1.67,2.71-2.19.56-4.32,1.4-6.48,2.11-6,2-6.07,2-2.49,7.44,4.93,7.5,11.92,12.65,19.7,16.83C79.08,139.53,79.27,139.68,79.5,139.48Zm21.23-18.66A13.91,13.91,0,1,0,87.1,106.61,13.86,13.86,0,0,0,100.73,120.82Z" transform="translate(-33.26 -6.52)"/><path class="cls-1" d="M88.77,68A28.48,28.48,0,0,1,60.49,37.48c.08-1.11-.05-1.61-1.35-1.75A14.5,14.5,0,0,1,46.23,23.26,14.69,14.69,0,0,1,55.85,7.38a14.49,14.49,0,0,1,17.34,6.14c.78,1.27,1.35,1.2,2.55.62,11-5.28,21.62-4.53,31.11,3.18s12.81,18.12,9.45,29.94S104.67,65.72,92.63,67.74A37.9,37.9,0,0,1,88.77,68Z" transform="translate(-33.26 -6.52)"/><path class="cls-1" d="M79.16,139.07l.3.44,0,0c-.23.2-.42.05-.61-.08Z" transform="translate(-33.26 -6.52)"/><path class="cls-1" d="M79.46,139.51l.23.17-.16.06,0-.26Z" transform="translate(-33.26 -6.52)"/></svg>