<svg id="Layer_1" data-name="Layer 1" xmlns="http://www.w3.org/2000/svg" viewBox="0 0 223.21 254.25"><defs><style>.cls-1{fill:#231f20;}.cls-2{fill:#201f1f;}</style></defs><path class="cls-1" d="M13.92,134.75q0-59.13,0-118.26c0-8.59.39-9,8.87-9H228.87c7.65,0,8.26.61,8.26,8.42q0,118.56,0,237.12c0,7.68-1.07,8.7-8.88,8.7H22.76c-7.82,0-8.83-1-8.83-8.74Q13.92,193.88,13.92,134.75Zm213.48,0c0-37.45-.09-74.91.12-112.36,0-4.47-1.19-5.37-5.48-5.36q-96.55.22-193.12,0c-4.39,0-5.41,1.06-5.4,5.42q.23,111.78,0,223.56c0,4.69,1.32,5.66,5.77,5.65q96.26-.21,192.53,0c4.58,0,5.73-1.15,5.7-5.71C227.32,208.85,227.4,171.79,227.4,134.72Z" transform="translate(-13.92 -7.51)"/><path class="cls-1" d="M125.57,46c20.66,0,41.32.17,62-.11,5.67-.08,7.48,1.72,7.25,7.37-.54,13.17.65,26.35-3.56,39.31-9.87,30.32-38.93,49.65-72.17,47.39-30-2-56.49-26.78-61.6-57.09C55.63,72,56.8,61.15,56.37,50.28c-.17-4.43,3.05-4.23,6.05-4.23Zm.07,7.19c-19.3,0-38.6.07-57.91-.06-3.17,0-4.51.65-4.31,4.12a122.36,122.36,0,0,1,0,15.2c-.28,4.39,1.29,6,5.71,6.47A55.16,55.16,0,0,1,116.28,122c.78,3.62-.92,8.79,2.51,10.56,3.09,1.59,7.63.22,11.52.49,3.4.23,4.09-1.31,4.43-4.39,2.57-23.26,15.13-38.74,36.78-47.43,5.21-2.1,13.11.37,15.41-5.18,2.15-5.18.26-11.92.7-17.94.31-4.33-1.35-5-5.25-5C163.47,53.34,144.56,53.23,125.64,53.23ZM69.26,86.16c-3.35-.72-4,.55-2.82,4,6.3,18.07,18.16,30.9,35.74,38.36,2.39,1,5.36,3.38,7.43,1.77s-.28-4.72-.67-7.11C106,105,86.82,87.13,69.26,86.16Zm73,44.86c20.37-6.71,34.41-19.52,41.76-39.47.59-1.6,2-3.61.84-4.88s-3.75-.62-5.57-.14c-16,4.14-27.8,13.44-34.18,28.94C143.19,120.24,141.24,125.13,142.3,131Z" transform="translate(-13.92 -7.51)"/><path class="cls-1" d="M60.6,212.75c11,0,11,0,11,8.78,0,14.19,1.5,13.1-13.77,13.08-7.88,0-8-.13-8-8.86C49.88,211.7,48.65,212.73,60.6,212.75Zm4.16,11.08c.63-3.1,0-4.75-3.73-4.62-3.16.12-5.1.28-4.78,4.32.23,2.84.15,4.78,4,4.49C63.2,227.79,65.92,228.08,64.76,223.83Z" transform="translate(-13.92 -7.51)"/><path class="cls-1" d="M60.45,209.08c-1.55,0-3.11-.11-4.65,0-4.21.37-6-1.43-6-5.7.39-19-2.86-15.82,16.32-16.16,3.86-.06,5.8,1.58,5.49,5.6-.13,1.73,0,3.49,0,5.23C71.63,209.08,71.63,209.08,60.45,209.08Zm4.31-10.9c.7-3.18-.22-4.58-3.77-4.48-3.16.09-5,.29-4.75,4.27.21,2.94.39,4.63,4,4.41C63.26,202.19,65.91,202.39,64.76,198.18Z" transform="translate(-13.92 -7.51)"/><path class="cls-1" d="M61.07,161.93c2,0,3.9.07,5.85,0,3.51-.13,4.8,1.59,4.74,5-.3,19,2.48,16.13-15.72,16.51-4.68.1-6.41-1.75-6.09-6.16.1-1.36,0-2.73,0-4.09C49.92,160.09,48.93,162.12,61.07,161.93ZM56.54,173c-1.24,3.59,1.08,3.69,4,3.93,3.89.32,4.37-1.42,4.44-4.75s-1.26-4-4.36-4.14C56.88,167.9,55.7,169.24,56.54,173Z" transform="translate(-13.92 -7.51)"/><path class="cls-1" d="M124.93,58c5.65,0,11.3-.09,16.94,0,6.19.13,10.14,3.72,10.1,9S148,75.61,141.74,75.7c-11.09.15-22.18.35-33.27.3-4.78,0-8.16-2.45-9.11-7.37-.89-4.63,1.09-8,5.27-9.91a13.35,13.35,0,0,1,5.11-.75c5.06-.1,10.13,0,15.19,0Zm11.37,2.5c-8.28.9-17-2.81-22,6.36,5,9.55,13.84,5.41,22.25,6.38C133.68,69,134,65.09,136.3,60.54Zm.69,6.65c.36,3.68,2.48,6,6.36,5.81,3.54-.15,5.66-2.36,5.68-6s-2.27-5.94-5.71-6.06C139.57,60.76,137.26,63,137,67.19Zm-25.57-.63C111,65,110.19,63.75,108,63.84a2.89,2.89,0,0,0-3,2.89,2.92,2.92,0,0,0,3.1,3.36C110.13,70.1,111.26,69,111.42,66.56Z" transform="translate(-13.92 -7.51)"/><path class="cls-2" d="M141.8,218.64h50.75c4,0,9-.21,8.88,5.18s-5.1,5-9.06,5q-50.76,0-101.5,0c-3.93,0-9,.42-8.85-5.15s5.11-5,9-5Q116.43,218.6,141.8,218.64Z" transform="translate(-13.92 -7.51)"/><path class="cls-2" d="M141.8,193.46h50.75c4,0,9-.21,8.88,5.18s-5.1,5-9.06,5q-50.76,0-101.5,0c-3.93,0-9,.42-8.85-5.15s5.11-5,9-5Q116.43,193.42,141.8,193.46Z" transform="translate(-13.92 -7.51)"/><path class="cls-2" d="M141.8,167.64h50.75c4,0,9-.21,8.88,5.18s-5.1,5-9.06,5q-50.76,0-101.5,0c-3.93,0-9,.42-8.85-5.15s5.11-5,9-5Q116.43,167.6,141.8,167.64Z" transform="translate(-13.92 -7.51)"/></svg>