<svg id="Layer_1" data-name="Layer 1" xmlns="http://www.w3.org/2000/svg" viewBox="0 0 123.04 249.75"><defs><style>.cls-1{fill:#060606;}.cls-2{fill:#070707;}</style></defs><path class="cls-1" d="M86.45,7.36c3.84,1.13,7.65,2.29,10.7,5.12,6.24,5.79,8.67,12.84,6.45,21.09-2.35,8.74-8.21,14-17.19,15.31A20.71,20.71,0,0,1,63.07,33,20.93,20.93,0,0,1,77.32,8.32c.64-.2,1.48-.14,1.81-1Z" transform="translate(-54.2 -7.36)"/><path class="cls-1" d="M107.8,147.92c-1.25,0-2.21,0-3.18,0a2.64,2.64,0,0,0-2.77,2.1c-4.25,11.78-8.6,23.53-12.95,35.27-.89,2.43-.67,5-.84,7.46-1,13.69-1.76,27.39-2.64,41.09-.26,4.13-.55,8.27-.94,12.39a12.17,12.17,0,0,1-24.27-1c.07-5.92.58-11.84,1-17.75.73-11.1,1.9-22.19,2.15-33.3a70.94,70.94,0,0,1,5.9-26.33c1.42-3.35,2.18-7,3.81-10.22,3-6,2.71-12.13,2-18.47-.8-7.48-1.28-15-1.9-22.53,1.16-.07,1.71.61,2.36,1C81.28,121.28,87,125,92.77,128.59c8.37,5.13,17.84,2.35,21.89-6.29,1.21-2.59,1.16-5.34,1-8.68,1,1.8,1.65,3.17,2.47,4.44a21.43,21.43,0,0,0,12,9.33c1.71.51,2.18,1.38,2.41,3,1.17,8.14.42,16.15-1,24.18-1.69,9.74-3.07,19.54-4.61,29.3a4.92,4.92,0,0,0,.34,2.13c5,18.16,9.78,36.38,15,54.48,2.74,9.55-4.37,17.17-12.44,16.62a12.43,12.43,0,0,1-11.09-9.44c-5.42-19.55-10.74-39.13-16.13-58.7-1-3.84,0-7.58.54-11.32C104.65,167.77,106.24,157.93,107.8,147.92Z" transform="translate(-54.2 -7.36)"/><path class="cls-2" d="M90.6,95.28c1.82-5.13.41-8.55-4.5-10.52-1.33-.53-2.39-1.72-3.71-2.29-3.73-1.6-4.14-4.69-3.64-8,.85-5.69,4-9.66,9.53-11.49,5.2-1.71,9.88-.56,14,3.06a6.14,6.14,0,0,1,1.94,3.26c2.15,8.78,4.44,17.54,6.63,26.32.7,2.82-.15,5.62-.43,8.42-.33,3.22-.58,6.46-1.05,9.67-1.17,8.15-8.94,11.87-16,7.58-6.22-3.81-12.31-7.81-18.46-11.72-5.26-3.35-10.56-6.65-15.78-10.06-3.83-2.5-5.57-6.17-4.71-10.65a9.87,9.87,0,0,1,7.83-8c3.12-.78,5.9.21,8.52,1.88Q80,88.54,89.2,94.39Z" transform="translate(-54.2 -7.36)"/><path class="cls-2" d="M110.52,69.24c13.6,6.25,27,12.43,40.49,18.59a6,6,0,0,1,3.73,5c.3,2.33.72,4.64,1,7a4.87,4.87,0,0,1-2.62,5.09,20.92,20.92,0,0,0-10.53,13.32c-1,3.48-4,4.63-8.37,3.6-6.37-1.52-10.67-5.44-12.48-11.7-3.88-13.35-7.56-26.76-11.31-40.14C110.37,69.83,110.45,69.66,110.52,69.24Z" transform="translate(-54.2 -7.36)"/><path class="cls-2" d="M101.6,54.36c7.62-.25,13.91,2.8,19.49,8.22,2.11-6,6-9.85,12.4-10.32,4.88-.35,8.81,1.58,12,5.71l-4.49.2c4,1.58,7.67,3,11.28,4.49,1.84.77,3.52-.15,5.25-.32,3.22-.31,6.41-1,9.61-1.45,4.88-.73,9.16,2.15,10,6.7a8.52,8.52,0,0,1-7.16,9.91c-5.19.91-10.39,1.7-15.6,2.46a11.67,11.67,0,0,1-6.64-1q-17.2-7.85-34.46-15.61a5.19,5.19,0,0,1-2.16-1.5A25.54,25.54,0,0,0,101.6,54.36Z" transform="translate(-54.2 -7.36)"/><path class="cls-2" d="M149.85,49.37a16.54,16.54,0,0,1-16.57-16.49,16.58,16.58,0,1,1,33.15,0A16.52,16.52,0,0,1,149.85,49.37Z" transform="translate(-54.2 -7.36)"/><path class="cls-2" d="M173.88,144.6a8.31,8.31,0,0,1-6.64,8.11,8.08,8.08,0,0,1-9.54-5.26c-2.16-5.82-4.09-11.74-6.16-17.6-.75-2.15-1-4.67-3.58-5.69-.52-.2-.63-.64-.27-1.18,1.22-1.85,1.53-4.06,2.35-6.08,1.24-3,3.74-4.8,6.47-6.32a1.17,1.17,0,0,1,1.34,0c3.11,1.93,6.24,3.78,7.52,7.57q3.93,11.7,8,23.37A12.12,12.12,0,0,1,173.88,144.6Z" transform="translate(-54.2 -7.36)"/></svg>