<svg id="Layer_1" data-name="Layer 1" xmlns="http://www.w3.org/2000/svg" viewBox="0 0 123.65 164.62"><defs><style>.cls-1{fill:#fff;}</style></defs><path class="cls-1" d="M86.3,97.57H61.84c-1.23,0-1.24,0-1.24-1.24,0-2.59,0-5.18,0-7.77a1.13,1.13,0,0,0-.85-1.29,78.42,78.42,0,0,1-19.33-10.5c-3.27-2.39-6.64-4.66-9.94-7a12.92,12.92,0,0,1-5.61-8,12.58,12.58,0,0,1,4.18-12.46,12,12,0,0,1,12.49-2.52,14.63,14.63,0,0,1,3.88,2l12.44,8.69a48.31,48.31,0,0,0,23.84,8.75,48.92,48.92,0,0,0,33.12-8.71c4.37-3,8.67-6.14,13.06-9.13a12.43,12.43,0,0,1,13-1c8.48,4,10,15.77,2.59,21.5a187.12,187.12,0,0,1-19.19,13.22,73,73,0,0,1-11,5.17c-1.09.42-1.11.24-1.11,1.61v7.27c0,1.7,0,1.45-1.52,1.45Z" transform="translate(-24.57 -5)"/><path class="cls-1" d="M60.71,30.63A25.69,25.69,0,1,1,86.32,56.39,25.63,25.63,0,0,1,60.71,30.63Z" transform="translate(-24.57 -5)"/><path class="cls-1" d="M68.35,169.62a12.44,12.44,0,0,1-10.19-5q-7.89-10.38-15.65-20.87a12.71,12.71,0,0,1,.28-15.52c4.72-6,9.5-11.9,14.26-17.84.59-.74.61-.74,1.34-.14L76.8,125.56c.65.54.65.57.09,1.27-2.29,2.88-4.6,5.75-6.89,8.62-.87,1.09-.84.86,0,2,2.88,3.85,5.74,7.72,8.65,11.54a13,13,0,0,1-3,18.41A12.1,12.1,0,0,1,68.35,169.62Z" transform="translate(-24.57 -5)"/><path class="cls-1" d="M104.31,169.62a12.82,12.82,0,0,1-12.64-11.05A12.38,12.38,0,0,1,94.1,149c2.92-3.92,5.87-7.83,8.8-11.74.65-.88.74-.71,0-1.67L96,127c-.67-.85-.67-.86.17-1.55q9-7.56,18.12-15.09c.84-.71.86-.71,1.53.13,4.73,5.91,9.48,11.8,14.17,17.74a12.71,12.71,0,0,1,.3,15.52q-7.77,10.54-15.73,21A12.34,12.34,0,0,1,104.31,169.62Z" transform="translate(-24.57 -5)"/></svg>