<svg id="Layer_1" data-name="Layer 1" xmlns="http://www.w3.org/2000/svg" viewBox="0 0 118.11 255.92"><defs><style>.cls-1{fill:#fff;}</style></defs><path class="cls-1" d="M163,7.64c4.25,1.41,7.91,3.5,10.09,7.69A14.42,14.42,0,1,1,147.22,28a14.57,14.57,0,0,1,7.71-19.27c.73-.3,1.66-.19,2.12-1Z" transform="translate(-70.51 -7.64)"/><path class="cls-1" d="M163.17,89c-2.68,3.34-4.92,6-7,8.78-3.3,4.32-7.69,5.53-12.83,4.65s-10.29-1.84-15.43-2.77c-1.11-.2-2-.38-2.35,1.27-2.75,13.31-5.61,26.61-8.42,39.91,0,.14.06.31.14.65,5.38-2.13,10.72-4.31,16.1-6.36,7.64-2.9,14.95.85,16.54,8.47.65,3.08-.28,6.1-.76,9.35,7.33,0,14.55.05,21.77,0a11.81,11.81,0,0,1,9.36,3.85c4.85,5.34,3.91,13.17-2.19,17.65-7.77,5.71-15.61,11.33-23.42,17-4,2.93-8,5.9-12.14,8.75a4.43,4.43,0,0,0-2,3.23c-2.79,16.7-5.57,33.4-8.47,50.08A11.64,11.64,0,1,1,109,250c1.27-8.79,2.88-17.52,4.33-26.29.12-.69.17-1.4.3-2.57L99.2,231.62c-3,2.19-6,4.41-9.09,6.58-6,4.31-13.14,3.38-17.17-2.22-3.92-5.43-2.52-12.45,3.44-16.8q20.48-14.9,41-29.69a4.76,4.76,0,0,0,2.39-3.74,54.28,54.28,0,0,1,1.25-7.11c.37-1.7-.07-2.25-1.92-2.24-11.24.09-22.49-.21-33.72.12-11,.32-16.39-6.61-14.53-17.5,3.94-23.15,8.38-46.21,12.61-69.3.9-4.9,1.79-9.8,2.62-14.71.79-4.6,2.81-6.16,7.46-5.33,10.38,1.84,20.74,3.78,31.1,5.66,5,.91,10,1.77,15,2.68a2.19,2.19,0,0,0,2.39-.79c4.65-5.75,9.38-11.44,14.27-17.39-2.44-.66-4.79-1-6.88-2.09-3.08-1.65-4.15-4.27-2.85-7.23a3.9,3.9,0,0,1,4.33-2.6l6.94.76a4.89,4.89,0,0,0,4.86-2.39,16.2,16.2,0,0,0,2.16-3.62c2-6.11,7.39-7.75,12.56-9.45,3.43-1.12,6.33,1,7,4.85,1,5.38,1.77,10.81,2.61,16.22.51,3.2,1,6.4,1.43,9.61A21.25,21.25,0,0,1,183.18,81c-4,4.58-5.91,9.62-5.29,15.76a28.37,28.37,0,0,1-.28,9c-.83,3.81-3.29,5.54-8,5.35-3.57-.15-5.63-2.22-6.11-5.95-.53-4.23-.23-8.48-.36-12.72C163.15,91.51,163.17,90.63,163.17,89Z" transform="translate(-70.51 -7.64)"/><path class="cls-1" d="M106,22.09a21.65,21.65,0,0,1,21.92,22c-.13,12.52-9.45,21.74-21.87,21.81A21.9,21.9,0,1,1,106,22.09Z" transform="translate(-70.51 -7.64)"/></svg>