<svg id="Layer_1" data-name="Layer 1" xmlns="http://www.w3.org/2000/svg" viewBox="0 0 215.53 228.98"><defs><style>.cls-1{fill:#fff;}</style></defs><path class="cls-1" d="M182.47,13.15c4.56,1.62,7.82,4.45,8.72,9.44a11.67,11.67,0,0,1,.18,1.77q0,13.2,0,26.39c0,2.62-1.49,4.15-3.72,4-2-.14-3.09-1.53-3.1-4.12,0-7.61,0-15.21,0-22.81,0-7.16-.78-7.95-7.92-7.95H47.82c-5.55,0-7.52,2.33-6.71,7.82.11.78.4,1,1.12,1,.52,0,1,0,1.56,0q59.82,0,119.63,0c6.39,0,10.67,3.12,12.12,8.74a14.14,14.14,0,0,1,.22,3.55q0,88.22,0,176.43c0,2.12.62,2.52,2.56,2.47,5-.13,6.27-1.3,6.27-6.44v-144a21.76,21.76,0,0,1,.07-2.68,3.1,3.1,0,0,1,3.23-3c1.95-.08,3,1.06,3.46,2.83a9.64,9.64,0,0,1,.07,2.22c0,48.38-.06,96.75.08,145.12,0,6.85-4.47,13.21-12.72,12.8-4.08-.21-4.09,0-4.19,3.93-.18,7-4.83,11.53-11.76,11.53H29.28c-6.81,0-11.73-4.79-11.77-11.58-.05-10.14,0-20.28,0-30.41,0-2.54,1.1-4,3.08-4.2,2.17-.23,3.7,1.16,3.79,3.67.09,3,0,6,0,8.94,0,7.08,0,14.16,0,21.24,0,4.09,1.59,5.63,5.72,5.63H162c4.07,0,5.69-1.63,5.69-5.66q0-94.36,0-188.72c0-4.11-1.49-5.56-5.7-5.56H30.32c-4.61,0-5.92,1.32-5.92,6q0,69.88,0,139.76a21.59,21.59,0,0,1-.09,2.67A3.3,3.3,0,0,1,21.06,187a3.51,3.51,0,0,1-3.52-3.1,15,15,0,0,1,0-2q0-70.33-.06-140.65c0-7.05,4.79-13,12.63-12.65,4.2.21,4.24,0,4.29-4,.08-6.13,3.54-9.57,9-11.43Z" transform="translate(-17.44 -13.15)"/><path class="cls-1" d="M199.8,134.34V88.52c0-6.06,2.79-8.82,8.88-8.83,5.28,0,10.57,0,15.86,0s8.4,3.12,8.4,8.49q0,46.48,0,93a8.35,8.35,0,0,1-.9,3.85c-3.4,6.76-6.81,13.51-10.17,20.29-1.16,2.34-2.67,4.14-5.51,4.18s-4.51-1.85-5.7-4.25c-3.29-6.64-6.57-13.29-9.93-19.9a9.51,9.51,0,0,1-1-4.49Q199.82,157.58,199.8,134.34Zm6.8,8.73c0,11.4,0,22.81,0,34.21,0,1.45.35,1.87,1.83,1.84,5.36-.09,10.73-.08,16.1,0,1.28,0,1.59-.36,1.59-1.62q-.06-34.22,0-68.42c0-1.27-.34-1.63-1.61-1.61-5.29.06-10.59.11-15.87,0-1.73,0-2,.47-2,2.09C206.63,120.71,206.6,131.89,206.6,143.07Zm9.66-42.41c2.75,0,5.51,0,8.26,0,1.15,0,1.57-.32,1.55-1.51-.06-3.64-.06-7.29,0-10.93,0-1.34-.42-1.81-1.8-1.79-5.28.07-10.56.06-15.84,0-1.28,0-1.9.25-1.86,1.71.09,3.64.08,7.29,0,10.93,0,1.32.45,1.62,1.66,1.58C210.91,100.61,213.59,100.66,216.26,100.66Zm.06,100.53c2.45-4.9,4.81-9.58,7.16-14.27.51-1-.11-1.08-.9-1.08h-13.9C211.26,191,213.72,196,216.32,201.19Z" transform="translate(-17.44 -13.15)"/><path class="cls-1" d="M74.41,46.67c9.61,0,19.22,0,28.83,0,5.64,0,8.64,3,8.64,8.7q0,28.83,0,57.66c0,5.77-3,8.79-8.81,8.79q-28.83,0-57.66,0c-5.52,0-8.71-3.2-8.71-8.73V55.43c0-5.59,3.11-8.74,8.65-8.76C55,46.65,64.72,46.67,74.41,46.67Zm30.71,37.71c0-9.54-.05-19.08,0-28.61,0-1.91-.62-2.41-2.45-2.4q-28.39.08-56.78,0c-1.86,0-2.47.59-2.47,2.44q.07,28.4,0,56.78c0,2,.7,2.55,2.62,2.55q28.28-.09,56.55,0c2,0,2.54-.65,2.53-2.59C105.07,103.16,105.12,93.77,105.12,84.38Z" transform="translate(-17.44 -13.15)"/><path class="cls-1" d="M36.7,207.92c0-2.9,0-5.81,0-8.71,0-4.34,2.86-7.43,7.14-7.51,6-.11,12.06,0,18.09,0a3.74,3.74,0,0,1,1.74.3c2,1.11,3.32.31,4.56-1.31a42.64,42.64,0,0,1,3-3.29c1.85-1.93,3.92-2.19,5.44-.69S78.11,190,76.3,192s-3.82,4.18-5.82,6.17a4,4,0,0,0-1.28,3.12c.07,5,0,10,0,15s-2.9,8-8.05,8H44.43c-4.84,0-7.72-2.92-7.73-7.8C36.69,213.58,36.7,210.75,36.7,207.92Zm6.83-9.34,7.16,10.7,9.9-10.57c-.62-.07-.89-.13-1.16-.13Zm18.77,8.28-9.85,10.52c3.29,0,6.08,0,8.86,0,.81,0,1-.44,1-1.13C62.29,213.32,62.3,210.38,62.3,206.86Zm-18.73,4.08c0,7.3-1,6.63,4.06,6.21Z" transform="translate(-17.44 -13.15)"/><path class="cls-1" d="M96,160.56H41.23c-2.91-.05-4.55-1.31-4.52-3.48s1.64-3.43,4.57-3.43H150.76a5.44,5.44,0,0,1,2.62.43,3.2,3.2,0,0,1,1.84,3.28,3,3,0,0,1-2.3,2.93,11.46,11.46,0,0,1-2.87.27Q123,160.58,96,160.56Z" transform="translate(-17.44 -13.15)"/><path class="cls-1" d="M96.16,134.74q27.39,0,54.78,0c2.06,0,3.74.43,4.22,2.7a3.31,3.31,0,0,1-3.09,4.05,13.68,13.68,0,0,1-1.57,0H41.39a8.2,8.2,0,0,1-1.79-.05A3.23,3.23,0,0,1,36.75,138a3.11,3.11,0,0,1,3.06-3.22c.74-.07,1.49,0,2.23,0Z" transform="translate(-17.44 -13.15)"/><path class="cls-1" d="M96.15,172.79h54.56a6.49,6.49,0,0,1,2.43.2,3.39,3.39,0,0,1-.63,6.46,8.88,8.88,0,0,1-2,.06q-54.57,0-109.12,0a8.78,8.78,0,0,1-1.78,0A3.21,3.21,0,0,1,36.75,176a3.11,3.11,0,0,1,3.06-3.22c.66-.06,1.34,0,2,0Z" transform="translate(-17.44 -13.15)"/><path class="cls-1" d="M116,211.3q-17.53,0-35.08,0c-1.88,0-3.17-.76-3.57-2.64a3.14,3.14,0,0,1,2-3.81,4.34,4.34,0,0,1,1.73-.28q35.19,0,70.38,0c2.4,0,3.8,1.33,3.77,3.43s-1.38,3.28-3.88,3.28Q133.69,211.32,116,211.3Z" transform="translate(-17.44 -13.15)"/><path class="cls-1" d="M137.08,69.86c-4.62,0-9.23,0-13.85,0-2.82,0-4.28-1.18-4.32-3.38s1.39-3.52,4.19-3.53q14-.06,27.91,0c2.81,0,4.23,1.27,4.21,3.5s-1.49,3.4-4.3,3.41C146.31,69.87,141.69,69.86,137.08,69.86Z" transform="translate(-17.44 -13.15)"/><path class="cls-1" d="M137.18,102.24c4.69,0,9.38,0,14.07,0,2.73,0,4.24,1.59,3.95,3.94-.24,1.93-1.66,3-4.29,3-5,0-10,0-15,0-4.24,0-8.49,0-12.73,0-2.84,0-4.28-1.2-4.31-3.41s1.46-3.5,4.42-3.51C128,102.23,132.56,102.24,137.18,102.24Z" transform="translate(-17.44 -13.15)"/><path class="cls-1" d="M137.09,88.76c-4.76,0-9.52,0-14.29,0-2.5,0-3.85-1.17-3.89-3.26s1.4-3.45,4-3.45q14.17,0,28.34,0c2.6,0,4,1.24,4,3.41s-1.39,3.3-4.07,3.31Z" transform="translate(-17.44 -13.15)"/><path class="cls-1" d="M84.22,85.91c5,4.07,6.94,9.3,6.57,15.49-.09,1.56,0,3.13,0,4.69-.07,2.31-1.31,3.6-3.6,3.64q-5,.08-10,0a3.44,3.44,0,0,1-3.63-3.43A3.38,3.38,0,0,1,77,103a39.91,39.91,0,0,1,5.13,0c1.65.14,1.94-.52,1.93-2,0-5.76-2.17-9.43-6.59-11a9.52,9.52,0,0,0-12.69,8.59c-.09,2.38,0,4.77,0,7.15s-1.36,3.9-3.35,4-3.5-1.44-3.56-4c-.06-2.31-.08-4.63,0-6.93A16.66,16.66,0,0,1,64.39,86c-8.07-7.74-6.14-17.89-.64-23a15.39,15.39,0,0,1,21.52.37C91,69.09,91.66,79.06,84.22,85.91Zm-1.4-11.75a8.56,8.56,0,0,0-8.36-8.68,8.71,8.71,0,0,0-8.72,8.62,8.53,8.53,0,0,0,8.55,8.47A8.34,8.34,0,0,0,82.82,74.16Z" transform="translate(-17.44 -13.15)"/></svg>