<svg id="Layer_1" data-name="Layer 1" xmlns="http://www.w3.org/2000/svg" viewBox="0 0 218.12 248.15"><defs><style>.cls-1{fill:#fff;}</style></defs><path class="cls-1" d="M185.82,206v35a16,16,0,0,1-13.4,16,13.91,13.91,0,0,1-2.5.21h-138a16,16,0,0,1-15.86-16c0-.41,0-.82,0-1.22q0-87.85,0-175.69a16,16,0,0,1,14.19-16.2,14.81,14.81,0,0,1,2-.1q10,0,20,0c.65,0,.83-.16.84-.83A13.79,13.79,0,0,1,67,33.34a1.45,1.45,0,0,1,.36,0c.68.14.92-.2,1.13-.82a34.18,34.18,0,0,1,64.81-.34c.4,1.15.4,1.15,1.6,1.15A13.83,13.83,0,0,1,148.6,44.57a10.72,10.72,0,0,1,.23,2.64c0,.63.2.75.77.75,6.68,0,13.36,0,20,0a15.94,15.94,0,0,1,16,13.66,18.24,18.24,0,0,1,.19,2.86q0,22.52,0,45a1.26,1.26,0,0,0,.85,1.33c16,8.25,25.44,21.22,27.93,39.07a48.29,48.29,0,0,1-3.17,24.86c-.23.59-.09.82.41,1.11,3.64,2.16,7.26,4.36,10.89,6.54a23.2,23.2,0,1,1-31.5,32.17c-1.67-2.71-3.28-5.45-4.93-8.17-.09-.16-.2-.32-.3-.48Zm-58.74-83.44H103a4.75,4.75,0,0,1-4.85-4.86,4.81,4.81,0,0,1,5.13-4.68h34.6a2.72,2.72,0,0,0,1.42-.37,49.26,49.26,0,0,1,17.41-6.19c.61-.09.69-.38.69-.91q0-14.15,0-28.28a11.56,11.56,0,0,1,.06-1.44,4.77,4.77,0,0,1,9.48,1q0,14.15,0,28.29c0,.62.15.81.78.84a42.07,42.07,0,0,1,7.81,1.08c.66.15.79,0,.79-.66q0-21.14,0-42.28a6.43,6.43,0,0,0-6.51-6.53c-6.72,0-13.45,0-20.17,0-.63,0-.75.22-.74.79q0,3.22,0,6.46a10.47,10.47,0,0,1-10.67,10.55H63.44A10.45,10.45,0,0,1,53,65.19c-.06-2.3,0-4.6,0-6.9,0-.66-.18-.83-.84-.83-6.6,0-13.21,0-19.81,0a6.46,6.46,0,0,0-6.78,6.76V241a6.38,6.38,0,0,0,.73,3.18,6.66,6.66,0,0,0,6.36,3.5H169.75a6.43,6.43,0,0,0,6.5-6.39c0-11.85,0-23.7,0-35.54,0-.59-.16-.66-.69-.54a44.51,44.51,0,0,1-7.88,1.11c-.66,0-.81.23-.81.87q0,12.17,0,24.34c0,3.27-2,5.23-5.22,5.23H40.91c-.4,0-.81,0-1.22,0a4.78,4.78,0,0,1-3.59-1.69A5.27,5.27,0,0,1,35,231.46q0-77.28,0-154.58c0-.19,0-.38,0-.57a4.77,4.77,0,0,1,9.38-1.09,8.74,8.74,0,0,1,.17,2.28q0,74.31,0,148.62c0,1.25-.16,1.08,1,1.08H156.7c.49.06.67-.11.67-.63q0-10,0-20c0-.52-.19-.68-.68-.76a48.4,48.4,0,0,1-11-3,3.74,3.74,0,0,0-1.39-.27H103a4.76,4.76,0,1,1,0-9.52h26.28c.29,0,.61.1.9-.14l-.38-.39a49.84,49.84,0,0,1-13-20.76c-.16-.5-.41-.59-.88-.58H103.08a5,5,0,0,1-2.67-.69A4.78,4.78,0,0,1,98.29,165a4.71,4.71,0,0,1,4.56-3.49q5.54,0,11.06,0c.5,0,.67-.13.61-.65a47.62,47.62,0,0,1-.21-6.09c0-1,.18-.9-.91-.9H103.13a4.93,4.93,0,0,1-3.43-1.24,4.77,4.77,0,0,1,3.25-8.32q6,0,12,0c.56,0,.76-.17.9-.71a49.39,49.39,0,0,1,9.68-19.28C126,123.79,126.48,123.22,127.08,122.51ZM101,65.72q18.41,0,36.83,0c1.25,0,1.51-.26,1.51-1.52V47.47a4.29,4.29,0,0,0-4.59-4.57H122c-1.91,0-3.83,0-5.74,0a4.77,4.77,0,1,1,.07-9.54h6.1c1.11,0,1.11,0,.61-1a24.68,24.68,0,0,0-40.86-5.12,25.46,25.46,0,0,0-3.55,5.46c-.28.57-.15.72.44.66a8.22,8.22,0,0,1,.86,0c5.93,0,11.87,0,17.8,0a4.77,4.77,0,0,1,3.76,7.75,4.91,4.91,0,0,1-4.12,1.8h-30c-3.1,0-4.81,1.7-4.81,4.78,0,3.78,0,7.56,0,11.34,0,1.84,0,3.69,0,5.53,0,.82.31,1.12,1.12,1.17H101ZM123.84,156a40.8,40.8,0,1,0,40.46-40.67A40.78,40.78,0,0,0,123.84,156Zm86.46,60.07a13.89,13.89,0,0,0,13.78-9.8,13.59,13.59,0,0,0-5.92-15.46c-3.64-2.26-7.33-4.42-11-6.65-.4-.24-.59-.19-.85.19a50.06,50.06,0,0,1-13.42,13.41c-.4.27-.4.46-.17.84,2.21,3.64,4.35,7.32,6.61,10.93A13.21,13.21,0,0,0,210.3,216.08Z" transform="translate(-16.05 -9.05)"/><path class="cls-1" d="M70.68,122.51H58.91a7.86,7.86,0,0,1-8-8q0-11.78,0-23.54a7.79,7.79,0,0,1,7.82-8q12-.1,23.9,0A7.79,7.79,0,0,1,90.48,91q0,11.73,0,23.47a7.85,7.85,0,0,1-8,8Zm0-9.54c3.13,0,6.27,0,9.4,0,.63,0,.86-.13.85-.82q0-9.43,0-18.88c0-.66-.19-.82-.83-.82q-9.45,0-18.88,0c-.6,0-.82.11-.82.77q0,9.51,0,19c0,.57.16.72.72.72C64.33,113,67.51,113,70.7,113Z" transform="translate(-16.05 -9.05)"/><path class="cls-1" d="M70.77,180.09h11.7a7.83,7.83,0,0,1,8,8q0,11.76,0,23.53a7.84,7.84,0,0,1-8.1,8.05H59.06a7.84,7.84,0,0,1-8.16-8.12V188.27a7.84,7.84,0,0,1,8.17-8.18ZM60.44,199.84c0,3.18,0,6.36,0,9.54,0,.52.08.75.69.75q9.59,0,19.16,0c.56,0,.67-.19.67-.7q0-9.54,0-19.09c0-.61-.18-.75-.77-.75q-9.51,0-19,0c-.63,0-.75.2-.74.78C60.45,193.52,60.44,196.68,60.44,199.84Z" transform="translate(-16.05 -9.05)"/><path class="cls-1" d="M70.72,131.51H82.34a7.84,7.84,0,0,1,8.14,8.15v23.39a7.83,7.83,0,0,1-8,8q-11.81,0-23.61,0a7.82,7.82,0,0,1-8-8q0-11.81,0-23.61a7.81,7.81,0,0,1,7.91-7.94C62.78,131.49,66.75,131.51,70.72,131.51Zm0,30c3.13,0,6.27,0,9.4,0,.63,0,.86-.13.85-.82q0-9.47,0-19c0-.59-.15-.76-.76-.76q-9.51,0-19,0c-.54,0-.75.11-.74.7q0,9.56,0,19.1c0,.55.14.74.72.73C64.33,161.53,67.51,161.55,70.7,161.55Z" transform="translate(-16.05 -9.05)"/><path class="cls-1" d="M123.18,105.32q-10.08,0-20.17,0a4.75,4.75,0,0,1-4.56-6.5,4.64,4.64,0,0,1,4.18-3,5.42,5.42,0,0,1,.57,0q20.07,0,40.12,0a4.77,4.77,0,0,1,.89,9.49,8.38,8.38,0,0,1-.86,0Z" transform="translate(-16.05 -9.05)"/><path class="cls-1" d="M123.25,219.64H103.09a4.77,4.77,0,1,1,0-9.53h40.4a4.76,4.76,0,0,1,1.31,9.38,5.75,5.75,0,0,1-1.49.14Z" transform="translate(-16.05 -9.05)"/><path class="cls-1" d="M198.74,156.15A34.09,34.09,0,1,1,164.25,122,34.05,34.05,0,0,1,198.74,156.15Zm-34.17,24.48A24.55,24.55,0,1,0,140.09,156,24.54,24.54,0,0,0,164.57,180.63Z" transform="translate(-16.05 -9.05)"/><path class="cls-1" d="M80.39,99.86a4.74,4.74,0,0,1-1.61,3.68c-2.19,1.89-4.39,3.77-6.62,5.61a4.66,4.66,0,0,1-5.73.22c-1.25-.89-2.47-1.81-3.65-2.78A4.75,4.75,0,0,1,68.47,99a.69.69,0,0,0,1,0c1-.92,2.08-1.84,3.18-2.69a4.77,4.77,0,0,1,7.71,3.62Z" transform="translate(-16.05 -9.05)"/><path class="cls-1" d="M66,195.28a4.35,4.35,0,0,1,2.61.92.52.52,0,0,0,.79,0c1-.88,2-1.75,3.06-2.6a4.77,4.77,0,1,1,6.18,7.26c-2.08,1.8-4.18,3.58-6.28,5.34a4.75,4.75,0,0,1-6.2.15c-1.13-.85-2.26-1.68-3.36-2.57a4.76,4.76,0,0,1-1.49-5.37A4.82,4.82,0,0,1,66,195.28Z" transform="translate(-16.05 -9.05)"/><path class="cls-1" d="M80.39,148.4a4.74,4.74,0,0,1-1.65,3.75q-3.26,2.81-6.56,5.56a4.67,4.67,0,0,1-5.91.12c-1.15-.85-2.3-1.71-3.42-2.61a4.75,4.75,0,0,1,5.6-7.68.73.73,0,0,0,1.09-.07c1-.92,2.07-1.85,3.18-2.68a4.51,4.51,0,0,1,5.06-.48A4.57,4.57,0,0,1,80.39,148.4Z" transform="translate(-16.05 -9.05)"/><path class="cls-1" d="M182.86,153a4.56,4.56,0,0,1-1.35,3.3q-7.83,7.84-15.68,15.67a4.76,4.76,0,0,1-6.72-6.74q7.8-7.85,15.63-15.63a4.76,4.76,0,0,1,8.12,3.4Z" transform="translate(-16.05 -9.05)"/><path class="cls-1" d="M153.08,159.7a4.79,4.79,0,0,1-3.68-7.63,5.77,5.77,0,0,1,.61-.7c3-3,6-6,9-9a4.76,4.76,0,0,1,8.09,1.94A4.46,4.46,0,0,1,166,148.9q-4.71,4.78-9.49,9.5A4.71,4.71,0,0,1,153.08,159.7Z" transform="translate(-16.05 -9.05)"/></svg>