<svg id="Layer_1" data-name="Layer 1" xmlns="http://www.w3.org/2000/svg" viewBox="0 0 152.99 155.46"><defs><style>.cls-1{fill:#231f20;}</style></defs><path class="cls-1" d="M13.64,87q0-33,0-66c0-8.17,3.43-11.66,11.48-11.66h86.19c7.58,0,11.19,3.58,11.22,11.17,0,8.74-.11,17.49.09,26.23.06,2.75-.81,3.38-3.35,3.19a64.08,64.08,0,0,0-9,0c-2.11.14-2.44-.72-2.41-2.55a85.64,85.64,0,0,0-.27-11.22,9.51,9.51,0,0,0-9.9-8.73q-29.61-.07-59.21,0c-6.38,0-10.25,4.5-10.26,11.65q-.06,27,0,54c0,6.37-.06,12.74,0,19.11.09,7.46,3.95,11.24,11.34,11.24,19,0,38-.19,57,.12,5.87.1,11.3-3.46,11.54-11.3.08-2.58-1.17-6,.55-7.54s5.25-.46,8-.5c6-.08,6,0,6,6.07,0,14.5-.24,29,.1,43.48.17,6.9-5.32,11.13-11.14,11.07-29-.27-58-.12-86.94-.13-7.38,0-11-3.58-11-11Q13.63,120.31,13.64,87Zm64.53,54.79a10.06,10.06,0,1,0-20.12-.12,10.47,10.47,0,0,0,10,10.08A10.49,10.49,0,0,0,78.17,141.74Z" transform="translate(-13.63 -9.32)"/><path class="cls-1" d="M135.15,42.14l31.47,35.63-31.47,35.65c0-4.92-.16-8.88.06-12.82.13-2.43-.76-2.86-3-2.85-14.73.1-29.47,0-44.2.12-2.65,0-3.3-.67-3.26-3.28.15-11.87.18-23.74,0-35.6,0-2.94.87-3.41,3.54-3.38,14.48.13,29,0,43.45.13,2.8,0,3.72-.63,3.47-3.47C134.94,49.23,135.15,46.15,135.15,42.14Z" transform="translate(-13.63 -9.32)"/></svg>