<svg id="Layer_1" data-name="Layer 1" xmlns="http://www.w3.org/2000/svg" viewBox="0 0 195.49 223.24"><defs><style>.cls-1{fill:#fff;}</style></defs><path class="cls-1" d="M225,121.56v92.25c0,4.08-.3,4.49-4.11,5.76l-80.2,26.77-.84.25c-3.47,1.11-5.6-.38-5.61-4,0-7.2-.06-14.4,0-21.59,0-1.63-.38-2.07-2-2-4.87.12-9.75.06-14.62,0-3.1,0-4.34-1.25-4.34-4.36q0-93.35,0-186.68c0-3.09,1.12-4.26,4.16-4.27q51.69,0,103.39,0c3.13,0,4.15,1.15,4.15,4.49ZM198.88,31l0-.36H197.1c-24.87,0-49.73,0-74.6-.06-2,0-2.31.6-2.3,2.41q.09,37,0,73.94,0,51.57,0,103.16c0,1.55.24,2.15,2,2.06a79.16,79.16,0,0,1,9.37,0c2.18.14,2.72-.46,2.71-2.67q-.1-76.66-.06-153.33c0-3.14.61-4,3.48-4.94q17.44-5.76,34.87-11.49Q185.72,35.34,198.88,31Z" transform="translate(-29.48 -23.71)"/><path class="cls-1" d="M65.58,23.74A34.76,34.76,0,0,1,99.27,60.36c-.82,19-17.38,33.91-36.71,33-19-.85-33.76-17.21-33-36.5C30.2,38,46.56,23,65.58,23.74ZM64.27,62a3.89,3.89,0,0,0,2.87-1.32c2.73-2.7,5.49-5.38,8.2-8.11,1.66-1.66,1.76-3.77.34-5.2s-3.49-1.45-5.22.16C68.92,49,67.39,50.44,66,52c-.93,1-1.44,1-2.27-.14-2.22-3.14-4.53-6.21-6.86-9.26a3.5,3.5,0,0,0-5-.86,3.45,3.45,0,0,0-.63,5c3.39,4.61,6.85,9.17,10.29,13.74A3.36,3.36,0,0,0,64.27,62Z" transform="translate(-29.48 -23.71)"/><path class="cls-1" d="M92.43,134.06,98,125.73c.34-.5.59-1,.17-1.57-1.86-2.73-3.68-5.49-5.87-8.76,0,1,0,1.46,0,1.86-.12,2.84-1.34,4.07-4.21,4.07H33.82c-2.71,0-4.34-1.35-4.32-3.52s1.63-3.47,4.36-3.47c16.43,0,32.85,0,49.28.05,1.81,0,2.36-.42,2.24-2.25-.17-2.6,0-5.23,0-7.84,0-1.9.75-3.3,2.59-3.82s3,.26,4,1.78q6.65,10.08,13.39,20.11a4,4,0,0,1,0,5q-6.64,9.83-13.17,19.74c-1.07,1.63-2.4,2.59-4.35,2s-2.51-2.19-2.47-4.12c0-2.61-.09-5.23,0-7.84.08-1.56-.42-1.9-1.93-1.89-16.27.05-32.55,0-48.83,0a12.79,12.79,0,0,1-2,0,3.4,3.4,0,0,1-3.14-3.34,3.47,3.47,0,0,1,3.12-3.58,14.4,14.4,0,0,1,1.74,0H86.71C91.41,128.31,92.14,129,92.43,134.06Z" transform="translate(-29.48 -23.71)"/><path class="cls-1" d="M43.21,171.59c-1.91,2.87-3.68,5.58-5.51,8.25a1.36,1.36,0,0,0,.06,1.76c1.79,2.63,3.55,5.28,5.33,7.94.56-.36.34-.83.35-1.2.1-3,1.34-4.18,4.33-4.19q19.53,0,39,0,7.64,0,15.26,0c2.59,0,4.14,1.29,4.19,3.42s-1.54,3.55-4.26,3.56c-16.5,0-33,0-49.51,0-1.77,0-2.18.51-2.1,2.16.14,2.61,0,5.24.05,7.85a3.56,3.56,0,0,1-2.59,3.83c-1.77.54-3.06-.32-4-1.79-4.47-6.71-8.92-13.42-13.43-20.1a4,4,0,0,1,.09-5q6.64-9.83,13.18-19.74c1.09-1.64,2.47-2.54,4.39-1.9s2.45,2.07,2.4,4c-.07,2.62.09,5.24-.06,7.85-.08,1.62.35,2.05,2,2,15.41-.07,30.82,0,46.24,0,1.16,0,2.33,0,3.49,0,2.58,0,4.14,1.35,4.14,3.47s-1.55,3.5-4.1,3.5q-14.51,0-29,0H49.6C44.36,177.18,43.92,176.81,43.21,171.59Z" transform="translate(-29.48 -23.71)"/></svg>