<svg id="Layer_1" data-name="Layer 1" xmlns="http://www.w3.org/2000/svg" viewBox="0 0 180.27 233.14"><defs><style>.cls-1{fill:#040404;}</style></defs><path class="cls-1" d="M89.88,122c-11-11.22-16.71-24.63-14.67-40.1.92-7-.82-9.82-7-12.8-10-4.81-15-17.1-12.83-27.42C58,29.53,67,20.6,78,19.27c11.92-1.43,23.37,4.4,28.08,15,1.7,3.86,3,4.63,7.19,3.4a41.57,41.57,0,0,1,24.82.67c2.69.86,3.87.59,5.08-2.35,5.07-12.31,18.15-19.24,30.31-16.49a27.57,27.57,0,0,1,21.72,28.08c-.39,10.87-8.15,20.91-19.16,24.32-2.3.71-3.5.87-2.87,3.91,3.34,16.16-.37,30.7-11.13,43.24-2,2.35-1.43,3,.53,5,5.06,5.09,9.5,6,16.7,3,14-5.89,30.67,3.51,34.8,18.18a27.88,27.88,0,0,1-20.67,34.74c-4,.9-6.59,7.33-3.61,9.93,17.91,15.64,8.51,43.31-5.58,54-8.74,6.61-18.22,10.09-29.26,7a21,21,0,0,1-12.18-8.42c-1.84-2.76-3.43-2.71-6.4-2.18a60.16,60.16,0,0,1-22.85-.15c-2-.41-3.56-1.06-5.28,1.3-9.58,13.15-26.4,13.63-39.31,4.4C55.3,236,48.67,222.73,51.34,205.61a26.29,26.29,0,0,1,7.28-14.16c4.75-5,3.49-10-2.91-11.85C45,176.43,38,169.54,35.62,158.5c-2.44-11.32,1.1-20.77,10.23-27.7,8.89-6.73,18.87-8.17,28.79-2.6,4.14,2.32,6.45,1.72,9.27-1.46C85.49,125,87.69,123.73,89.88,122Zm8.92,46.67c0,2,0,2.61,0,3.17,1.48,13.27,16.11,30.41,28.88,33.74a5.24,5.24,0,0,0,3.26-.14c12.57-6,22.56-14.62,26.81-28.38,2.59-8.39.12-16.14-5.64-20.19-6-4.22-12.39-3.88-20.16,1.51-2.54,1.76-4,1.72-6.6-.21-5.29-4-11.37-5.86-17.79-2.58A15.56,15.56,0,0,0,98.8,168.71Z" transform="translate(-34.87 -18.93)"/></svg>