<svg id="Layer_1" data-name="Layer 1" xmlns="http://www.w3.org/2000/svg" viewBox="0 0 211.18 217.13"><defs><style>.cls-1{fill:#060606;}.cls-2{fill:#100f0f;}</style></defs><path class="cls-1" d="M32.35,249.58c-1.17-1.21-2.9-1.19-4.28-2A16.29,16.29,0,0,1,19.65,234c0-.42,0-.85,0-1.27q0-84.69,0-169.39c0-7,3.09-12.15,9.31-15.38a17.08,17.08,0,0,1,8-1.6c4.1,0,8.2-.07,12.3,0,1.53,0,1.91-.46,1.84-1.9-.12-2.4-.07-4.81,0-7.21,0-2.88,1.61-4.71,4-4.78s4.2,1.74,4.29,4.72q.12,3.81,0,7.63c0,1.23.4,1.53,1.58,1.53,6.64,0,13.29-.08,19.93,0,1.51,0,1.75-.55,1.71-1.85-.08-2.4-.06-4.8,0-7.21,0-2,.65-3.76,2.73-4.58,2.64-1,5.39.89,5.52,4,.12,2.68.08,5.38,0,8.06,0,1.17.26,1.58,1.51,1.57,5.72-.06,11.45-.07,17.17,0,1.42,0,1.62-.56,1.59-1.76-.07-2.47-.07-5,0-7.42.08-3,1.71-4.81,4.24-4.71s3.91,1.9,3.94,4.82c0,2.54,0,5.09,0,7.63,0,1.11.32,1.43,1.44,1.43q9.64-.07,19.29,0c1.2,0,1.6-.36,1.57-1.56q-.12-3.72,0-7.42c.07-3.08,1.63-4.89,4.09-4.91s4.14,1.88,4.16,5.06c0,2.4.08,4.81,0,7.21-.06,1.35.41,1.63,1.68,1.62,5.51,0,11,0,16.53.1a16,16,0,0,1,15.27,15.48c.21,5.22,0,10.45.08,15.68a2.13,2.13,0,0,1-.72,1.66c-3.75,3.72-7.48,7.47-11.24,11.24-.59-.62-.32-1.28-.32-1.86,0-8.27,0-16.53,0-24.8,0-3.82-1.39-5.2-5.24-5.21-4.73,0-9.47.07-14.2,0-1.54,0-1.95.43-1.82,1.89a29.85,29.85,0,0,1,0,4.23c-.13,2.5-1.64,4.13-3.84,4.25-2.41.13-4-1.27-4.32-3.9a33,33,0,0,1-.07-4.87c0-1.14-.22-1.6-1.49-1.59-6.5.06-13,.05-19.51,0-1,0-1.34.3-1.29,1.31.07,1.62.07,3.25,0,4.88a4,4,0,0,1-3.9,4.17c-2.39.09-4-1.41-4.22-4a44,44,0,0,1,0-4.87c0-1.06-.24-1.5-1.4-1.49q-8.81.07-17.6,0c-1.06,0-1.31.36-1.27,1.34.07,1.55.07,3.11,0,4.66-.11,2.61-1.66,4.29-4,4.37s-4-1.39-4.24-4a37.67,37.67,0,0,1,0-4.87c0-1.05-.21-1.48-1.38-1.48-6.86.06-13.71.05-20.57,0-1,0-1.28.36-1.29,1.34,0,1.9.26,3.81-.2,5.69-.52,2.14-1.77,3.26-3.76,3.33a3.82,3.82,0,0,1-4.1-3.19c-.5-1.87-.18-3.79-.21-5.69,0-1-.13-1.51-1.35-1.49-4.52.08-9,0-13.57.05-2.67,0-4.13,1.57-4.25,4.24,0,.49,0,1,0,1.48V231.45c0,4.75,1.11,5.86,5.87,5.86H72.54a4.15,4.15,0,0,1,2.62.55,12.13,12.13,0,0,0,11.69,1.39,36.93,36.93,0,0,1,13.45-2c21.7.09,43.39,0,65.09,0,4.39,0,5.63-1.25,5.63-5.7,0-14.42,0-28.83,0-43.25a4.59,4.59,0,0,1,1.56-3.66c3.49-3.39,6.88-6.88,10.33-10.35.72.59.4,1.27.4,1.84q0,28.08,0,56.18c0,8.7-4.69,14.69-13.1,16.85-.17.05-.3.23-.45.36Z" transform="translate(-19.62 -32.45)"/><path class="cls-1" d="M110.69,166H62.23c-.56,0-1.13,0-1.69,0-2.87-.1-4.53-1.59-4.45-4s1.69-3.58,4.54-3.58q27.76,0,55.53,0a4.44,4.44,0,0,0,3.5-1.41Q147.11,129.48,174.6,102c1.28-1.28,1.86-1.18,3.07,0q15.29,15.44,30.72,30.72c1.2,1.18,1.4,1.77.09,3.08q-39.12,39-78.11,78.06a12.23,12.23,0,0,1-5.15,3.14q-20,6.3-40,12.72c-1.52.48-3,1-4.32-.4s-.71-2.74-.25-4.18Q87.08,205.07,93.45,185a11.3,11.3,0,0,1,3-4.79C101.08,175.61,105.69,171,110.69,166ZM110,181.76c1.44,0,2.28-1,3.18-1.85l60.53-60.52A14.16,14.16,0,0,0,175,118a2.73,2.73,0,0,0-.28-4,2.85,2.85,0,0,0-4,0,15,15,0,0,0-1.22,1.17q-30.19,30.18-60.38,60.38a9.93,9.93,0,0,0-1.64,1.92A2.9,2.9,0,0,0,110,181.76Zm-11.8,10.12c-1.64,5.18-3.28,10.41-5,15.61a1.87,1.87,0,0,0,.45,2.25c2.38,2.31,4.71,4.66,7,7a1.8,1.8,0,0,0,2.06.53c5.33-1.73,10.66-3.44,15.81-5.1Z" transform="translate(-19.62 -32.45)"/><path class="cls-1" d="M230.8,109.32a10,10,0,0,1-2.86,6.84c-3.84,3.94-7.76,7.8-11.6,11.75-.77.78-1.17.57-1.83-.1q-15.91-16-31.89-31.87c-.81-.8-.72-1.26,0-2,3.78-3.71,7.46-7.51,11.26-11.2,3.53-3.43,9.24-4.87,14,.14,6.49,6.87,13.31,13.43,20,20.1A8.28,8.28,0,0,1,230.8,109.32Z" transform="translate(-19.62 -32.45)"/><path class="cls-2" d="M99.56,102.52q-19.4,0-38.8,0c-2.95,0-4.53-1.21-4.67-3.46A3.45,3.45,0,0,1,59,95.22,11.68,11.68,0,0,1,61.46,95q38.05,0,76.11,0a14.77,14.77,0,0,1,1.49,0c2.62.28,4.08,1.79,3.95,4s-1.66,3.48-4.23,3.49C125.71,102.54,112.63,102.52,99.56,102.52Z" transform="translate(-19.62 -32.45)"/><path class="cls-2" d="M99.56,132.55H60.77a4.69,4.69,0,0,1-3.22-.75,3.61,3.61,0,0,1-1.43-3.53,3.32,3.32,0,0,1,2.42-2.91,9.83,9.83,0,0,1,2.71-.35q38.27,0,76.53,0a8.75,8.75,0,0,1,2.7.35,3.4,3.4,0,0,1,2.5,3.92,3.48,3.48,0,0,1-3.14,3.21,12.46,12.46,0,0,1-2.12.06Z" transform="translate(-19.62 -32.45)"/></svg>