<svg id="Layer_1" data-name="Layer 1" xmlns="http://www.w3.org/2000/svg" viewBox="0 0 139.23 162.41"><defs><style>.cls-1{fill:#040404;}</style></defs><path class="cls-1" d="M116.24,5.79H120c1.43.53,3,.74,4.19,1.79a4.56,4.56,0,0,0,3.31,1.13,13.69,13.69,0,0,1,4.23.63c1,.31,1.19.6.39,1.46a83.55,83.55,0,0,0-7.66,9.42,46.55,46.55,0,0,0-5.84,11.1c-.73,2.15,0,3.44,2.19,3.91.82.18,1.64.35,2.47.51,3.4.68,6.56,1.78,8.86,4.62a5.25,5.25,0,0,1,1.06,5.3c-.48,1.43-1.11,2.8-1.64,4.21a4.93,4.93,0,0,0,.64,5.13,4,4,0,0,1,.95,2.17c.23,3.8-.31,7.33-3.91,9.59a9,9,0,0,0-1.29,1,1.48,1.48,0,0,0-.45,1.89,4.4,4.4,0,0,1-.73,4.62c-.62.79-1.33,1.53-2,2.28a10.18,10.18,0,0,0-2.87,4.81c-.37,1.89-.41,3.5,1.52,5a85.52,85.52,0,0,1,16.36,16.5,63,63,0,0,1,12.08,25.93,47.28,47.28,0,0,0,.86,5.15V142c-.4.1-.3.48-.36.73a23.43,23.43,0,0,1-8.88,13.42c-5.83,4.57-12.59,7.16-19.69,8.92a118.17,118.17,0,0,1-16.31,2.64,66.89,66.89,0,0,1-18.8-.43c-11.27-2-19.86-8.28-26.34-17.48-5.57-7.9-7.69-16.72-5.42-26.24a47,47,0,0,1,10-19.69c.66-.77.73-1-.41-1.28-1.77-.37-3.43.32-5.14.28a1.84,1.84,0,0,0-2,1.58,14.18,14.18,0,0,0-.23,5.15,1.18,1.18,0,0,1-1.12,1.45,32.16,32.16,0,0,1-4.26.51c-2.93.2-3.38.69-3.29,3.55l0,.89a36.35,36.35,0,0,1,.24,4c-.14,1.7-.23,1.79-1.9,1.9s-3.54.29-5.3.42c-3.71.27-7.41.63-11.13.54-.95,0-1.17-.33-1.16-1.25a161.82,161.82,0,0,0-1.51-26.4,74.52,74.52,0,0,0-5.25-19.12c-3.29-7.42-6.94-14.68-10.66-21.91-.66-1.28-.42-1.91.94-2.42a5.31,5.31,0,0,1,1.45-.36C21.5,51.17,26.74,51,32,50.93A177.85,177.85,0,0,0,50.44,50a8.59,8.59,0,0,0,6.38-3.72c4-5.67,8.31-11.15,12.44-16.74A5.68,5.68,0,0,1,73,27.4a14.47,14.47,0,0,1,4.16-.17,17.45,17.45,0,0,0,5.05-.07,1.7,1.7,0,0,0,1.5-2.35,7.37,7.37,0,0,0-1.26-2.44q-3.12-4.29-6.22-8.6c-1.35-1.89-1-3.15,1.23-4,.82-.3,1.71-.44,2.52-.78a5.5,5.5,0,0,1,5.9,1c1.09.86,2.14,1.78,3.29,2.56a2.86,2.86,0,0,0,4-.35,9.79,9.79,0,0,0,2.2-3.06,2.85,2.85,0,0,1,2-1.57c1.65-.46,3,.2,4.43,1a19.94,19.94,0,0,0,4.12,2.15c1.32.37,2.55.52,3.43-.91a6,6,0,0,1,1.07-1.07C112,7.13,114.16,6.51,116.24,5.79ZM87.89,32.41H74.2a1.51,1.51,0,0,0-1.3.57,229.47,229.47,0,0,0-15,19.86,2.16,2.16,0,0,0-.3,1.19c-.37,4.39-.24,8.79-.19,13.18.11,9.47.78,18.91,1.51,28.34.06.83.5.81,1.08.82,3.25.06,6.52,0,9.75.27A6.7,6.7,0,0,0,76.25,94c3.21-4,6.65-7.72,9.32-12.11a5.44,5.44,0,0,0,.68-3.59,40.25,40.25,0,0,1,.45-11.85c.08-.38.24-.77,0-1.11-1.38-2.63-1.32-5.43-.93-8.26s.48-5.71,2.83-7.83a11.58,11.58,0,0,0,1.21-1.62,16.32,16.32,0,0,1,5.51-5.1,2.08,2.08,0,0,1,2.5.23c2.1,1.59,3.8,3.61,5.86,5.23A9.07,9.07,0,0,0,110,50.17a2,2,0,0,0,1.89-2.87c-.27-.62-.57-1.22-.86-1.82-1.91-3.95-4.55-7.46-6.74-11.23a3.18,3.18,0,0,0-3.09-1.81C96.76,32.43,92.33,32.05,87.89,32.41Zm25,89.93c.47-1.42.21-2.81.52-4.13.09-.36,0-.76.06-1.13.12-.67-.24-.88-.79-1a18.39,18.39,0,0,0-4.81-.89c-2.57-.1-2.62-.1-2.55-2.67,0-1-.27-1.3-1.31-1.35-1.29-.06-1.65.37-1.47,1.55.07.45,0,.94,0,1.39.11.8-.25,1.06-1,1a11.45,11.45,0,0,0-3.92.82,8.72,8.72,0,0,0-4.3,13.34c1.86,2.56,4.58,3.76,7.57,4.36.9.19,1.16.5,1.12,1.39-.07,1.81-.07,3.64,0,5.45,0,.88-.26,1.08-1.08,1a25,25,0,0,1-6.65-1.34c-.84-.34-.87,0-.91.69-.09,1.48-.22,2.95-.44,4.41-.13.82.16,1.1.91,1.28a46.54,46.54,0,0,0,5.87.81c2.27.25,2.31.21,2.26,2.61,0,.88.09,1.28,1.17,1.31,1.25,0,1.66-.34,1.46-1.54-.07-.41,0-.84,0-1.26-.08-.77.11-1,1-1.12,5.74-.55,10.79-3.77,10.14-11a8.12,8.12,0,0,0-3.46-6.3,17,17,0,0,0-6.16-2.41c-.72-.16-.86-.43-.85-1.07,0-1.7.06-3.39,0-5.08,0-.72.25-.82.87-.79A20.56,20.56,0,0,1,112.88,122.34ZM95.28,64.71c5.15-.31,9.87-.59,14.59-.89s9.51-.67,14.27-.92c2.68-.14,4.48-1.59,4.76-4.07A4.78,4.78,0,0,0,125.25,54a12.53,12.53,0,0,0-4.39-.42c-6.43.55-12.88.83-19.32,1.19a24.87,24.87,0,0,0-9.17,2.05,4.09,4.09,0,0,0-1.73,5.68A4.14,4.14,0,0,0,95.28,64.71Zm11.2,11.72c4.17-.2,8.35-.34,12.51-.61a4.13,4.13,0,0,0,3.84-4.11c.07-1.72-1-2.81-3.31-3.3s-4.54,0-6.8.16c-5.93.34-11.87.73-17.81.87-2.21.06-3.33,1-3.64,3.33A3.52,3.52,0,0,0,94,76.61a6.33,6.33,0,0,0,2.37.15C99.73,76.45,103.12,76.71,106.48,76.43Zm-51.61,16c-.21-4.24-.44-9.81-.77-15.38-.38-6.36-.2-12.74-1-19.08-.23-1.81-1.34-2.62-3.11-2.11a1.13,1.13,0,0,0-1,1.25c.08,1.26,0,2.53.08,3.8.32,10,.62,19.94,1,29.91.13,3.63.33,7.26.62,10.88.2,2.52.35,2.55,2.91,2.29l.26,0c.68-.1,1-.34,1-1.2C54.82,99.75,54.87,96.75,54.87,92.41Zm40.25-3.22c3.67-.16,7.33-.3,11-.48,2.57-.13,5.13-.29,7.7-.46a2.61,2.61,0,0,0,2.68-2.34c.28-1.84-.35-3.37-1.69-3.82a15.57,15.57,0,0,0-2.47-.44,50.88,50.88,0,0,0-10.1,0c-2.44.12-4.88.24-7.31.49A4.15,4.15,0,0,0,91,86.47C91.21,88.32,92.7,89.32,95.12,89.19Zm25.69-48.42c-1.52-.13-3.35.3-5.21.29-.32,0-.75-.08-.61.48a13.67,13.67,0,0,0,3.59,6.24,1,1,0,0,0,.47.14,20.21,20.21,0,0,0,6.88.47c1-.13,2.11-.24,2.7-1.12.92-1.36-.31-5-1.81-5.65A13.26,13.26,0,0,0,120.81,40.77Z" transform="translate(-13.53 -5.79)"/><path class="cls-1" d="M104.62,137.76c0-.93,0-1.86,0-2.79,0-.5.09-.64.62-.58a3.69,3.69,0,0,1,3.37,3.2,3.6,3.6,0,0,1-3.33,3.75c-.51,0-.68,0-.66-.55C104.64,139.78,104.62,138.77,104.62,137.76Z" transform="translate(-13.53 -5.79)"/><path class="cls-1" d="M102.55,123.72c0,.64,0,1.27,0,1.9,0,1.37-.09,1.42-1.4.91A3,3,0,0,1,99,123.46a3.32,3.32,0,0,1,2.65-2.71c.54-.1,1-.12.9.69A21.68,21.68,0,0,0,102.55,123.72Z" transform="translate(-13.53 -5.79)"/></svg>