<svg id="Layer_1" data-name="Layer 1" xmlns="http://www.w3.org/2000/svg" viewBox="0 0 173.64 138.33"><defs><style>.cls-1{fill:#050505;}.cls-2{fill:#020202;}</style></defs><path class="cls-1" d="M179.33,88.86c-2.27,2.79-4.52,5.59-6.84,8.34-2,2.37-3.83,2.48-6.24.47Q130,67.48,93.78,37.24c-.94-.79-1.45-.88-2.46,0Q55.2,67.41,19,97.53c-2.66,2.22-4.38,2.08-6.6-.55-1.72-2-3.41-4.07-5.12-6.1-2.24-2.64-2.13-4.37.52-6.59q19.79-16.5,39.57-33Q65.19,36.47,83,21.61c6.24-5.22,12.84-5.22,19.08,0,7.82,6.59,15.67,13.12,23.52,19.68.33.27.67.53,1,.82a2.51,2.51,0,0,0,.25-1.72c0-5.88,0-11.75,0-17.63,0-3.63,1.14-4.78,4.72-4.78h18.48c3.31,0,4.45,1.17,4.45,4.51q0,20.69,0,41.36a3,3,0,0,0,1.21,2.56q10.53,8.67,21,17.4a7.32,7.32,0,0,1,2.56,3Z" transform="translate(-5.69 -17.7)"/><path class="cls-2" d="M154.58,123.67q0,12.36,0,24.74c0,4.58-2.91,7.54-7.47,7.55-13.11,0-26.22,0-39.32,0-1.36,0-1.54-.46-1.54-1.64,0-12.66,0-25.32.07-38,0-1.55-.44-1.83-1.87-1.81q-11.86.11-23.73,0c-1.48,0-2,.27-2,1.89.08,12.54,0,25.08.09,37.63,0,1.6-.47,1.91-2,1.9-12.77-.06-25.54-.15-38.31,0a7.71,7.71,0,0,1-8.13-8c.16-16.49.08-33,0-49.49a3.4,3.4,0,0,1,1.46-3Q61.49,71.24,91,46.82c1.3-1.08,2-.91,3.18.07q29.49,24.4,59.08,48.7a3.43,3.43,0,0,1,1.38,3C154.55,106.94,154.58,115.3,154.58,123.67Z" transform="translate(-5.69 -17.7)"/></svg>