<svg id="Layer_1" data-name="Layer 1" xmlns="http://www.w3.org/2000/svg" viewBox="0 0 225.79 225.68"><defs><style>.cls-1{fill:#231f20;}</style></defs><path class="cls-1" d="M113.58,27.45a21.89,21.89,0,0,0,6.75-.46l16.1.85,3.43.27a2.38,2.38,0,0,0,2.5.51l2.57.36c1.51,1.06,3.27,1,5,1.07a16.48,16.48,0,0,0,5.94,1.66,184.38,184.38,0,0,1,22.89,9.74L187.82,47a19.59,19.59,0,0,0,5.33,4l.1.06.7.57,4.37,3.67,8.38,8.3.17.14.69.7a11.26,11.26,0,0,0,3.16,3.67l12.06,17.63.35.89a137,137,0,0,1,12.31,37.26l.24,2.52q.47,5.94.94,11.87l-.22,6.76a123.8,123.8,0,0,1-13.26,48.26l-.37.88-6.19,10a43.7,43.7,0,0,0-5.77,7.68,2.33,2.33,0,0,0-1.52,1.75l-2.55,2.69a164.1,164.1,0,0,1-23.85,19.93,11,11,0,0,0-5,2.9c-9.81,4.49-19.7,8.68-30.33,11-12.35,2.67-24.78,2.93-37.3,2.05l-2.72-.34c-5.66-1.6-11.52-2.31-17.16-4.08A113.15,113.15,0,0,1,50.79,226a9,9,0,0,0-1.45-.83,5,5,0,0,0-2.6-2.28q-4.18-4.37-8.39-8.72l-1.15-1.43c.06-.51-.23-.71-.69-.77l0,0A148.1,148.1,0,0,1,19.75,184.8l-.54-1.67c.13-.44-.07-.64-.5-.68l-.05-.09A220.72,220.72,0,0,1,12,157.86l-1-10.22q0-7.21-.07-14.42l.42-6.72A163.44,163.44,0,0,1,19.44,96c.56-.76,1.25-1.46,1-2.53,1.58-2.73,3.45-5.33,4.2-8.47l1.09-1.82L33.5,71.62a2.33,2.33,0,0,0,1.38-1.77l9.3-10.23h0l11.76-10.2,3.46-2.52L69.27,41c1.22-.83,2.81-1.07,3.73-2.37,4.68-1.76,9.36-3.53,14-5.27C95.62,30.15,104.63,28.93,113.58,27.45ZM154.22,188l.84-.57.91-.66q22.88-15.67,24.31-43.37c.73-3.39,0-6.75-.19-10.13-1.08-10.37-4.65-19.7-11.52-27.65l-1.55-2A33.82,33.82,0,0,0,155.9,93.44h0c-2.58-2.49-5.84-3.8-9-5.36-2.29-1.14-3-.55-2.92,1.9.1,5.08.05,10.16,0,15.23a3.43,3.43,0,0,0,1.59,3.19c9.3,6.48,14.28,15.67,16.56,26.54l.15,1.78a1.63,1.63,0,0,0-.1.41c.78,16.2-7.64,31.15-21.64,37.59-15.64,7.19-30.17,4.95-43.25-6.18-6.22-5.28-9.41-12.47-11.89-20l-.23-1.83c-1.59-15.9,3.3-29,16.61-38.49a3.11,3.11,0,0,0,1.44-2.82c0-5.33,0-10.67,0-16,0-2.14-.76-2.27-2.57-1.66-2.25.77-3.93,2.4-6,3.45a43.77,43.77,0,0,0-17.86,16.58,2.49,2.49,0,0,0-1.37,1.93c-.44,0-.67.23-.56.7l-.34.8c-.44.14-.75.37-.62.9l-.47,1.11a40.25,40.25,0,0,0-6,16.68,5.39,5.39,0,0,0-.35,3.45,27.23,27.23,0,0,0,.06,14.25l.28,2.69a8.61,8.61,0,0,0,1.2,5,1.9,1.9,0,0,0,.61,1.82c0,.09-.17.22-.14.27a3.34,3.34,0,0,0,.36.48l.53,1.74c-.24.42,0,.58.36.68l0,.07c5.42,14.94,15.34,25.6,30.12,31.63l0,0c17.09,7.85,33.83,7,50.25-2l.84-.38c.44.12.68-.05.73-.51A2.23,2.23,0,0,0,154.22,188Zm-37.49-65.56a2.18,2.18,0,0,0,1.92,1.31l.76.23a6.35,6.35,0,0,0,6.06.83l1.74-.59.79-.26.82-.29.79-.58A5.43,5.43,0,0,0,133,119.5c3.16-5.65,1.54-11.68,1.44-17.59a29.83,29.83,0,0,0,.07-8.44c.07-4.5.41-9,.12-13.49-.32-4.9-3.61-8.8-11.45-10.47-2.76-.59-7.6,2.63-9.5,6a13.28,13.28,0,0,0-1.33,6.55q-.14,15.42,0,30.85c0,3.77.89,7.29,4.43,9.48Z" transform="translate(-10.83 -26.99)"/></svg>