<svg id="Layer_1" data-name="Layer 1" xmlns="http://www.w3.org/2000/svg" viewBox="0 0 224.7 219.21"><defs><style>.cls-1{fill:#fff;}</style></defs><path class="cls-1" d="M15.77,55.74c-3-4-4.11-8.23-2.09-13,2.24-5.3,6.52-7.3,12-5.73,2.53.73,5.08,1.37,7.62,2.06a2.35,2.35,0,0,0,2.36.77c5.44,2.85,12.26,2.54,16.83,7.37a.39.39,0,0,0,.52.36c.79,2.3,1.61,4.59,2.36,6.9,2.87,8.85,2.86,8.85,12.14,8.27h6l21.89,0h27.87c1.63,1.6,6.19-2.53,5.83,3a45,45,0,0,0-2.74,19l.27,5c1.41,14.4,6.78,27,17.24,37.16,10.49,11.57,23.65,17.67,39.09,19.1l2.07.2c5.87,1.09,11.66-.6,17.59-.84-.26,1.54-.48,2.81-.69,4.08-1.08,1.43-1.2,3.14-1.39,4.82l-2,6.19v.15c-3,5.22-6.11,10.3-12.55,11.87l-2,.3-1.91.06-2.09-.08c-8.59-.33-17.19-.42-25.78.08l-2.08-.06-22.82,0-6,0H101.37l-2.06.09h-1l-3-.11a31.2,31.2,0,0,0-4.42-.15c-3.15.33-8.64-1.34-9,.76-.59,3.56,2.93,6.89,6.32,9.12,6.36,6.2,14.31,5,22.06,4.78H171c1.16.06,2.31.17,3.46.18,11.76.09,15.62,5,13.08,16.64l-.61,1.13c-4.11,5.61-10.31,4.33-16,4.85a5.65,5.65,0,0,0-3.91,0L166,210h-1.94a133.17,133.17,0,0,0-18.95,0h-1.94l-1.07,0a5.63,5.63,0,0,0-3.9,0,172.44,172.44,0,0,0-21,0h-1.94c-2.14-.07-4.28-.32-6.4-.19-13.67.85-26.16-1.92-36.45-11.62h0c-2.7-3.54-5.69-6.83-8-10.7-4.45-7.61-7-16-9.74-24.23l-.54-2.86q-.69-3.06-1.39-6.13l-.36-2.89q-1.34-6.52-2.66-13l-.32-1.89-3-15.9-1.33-7.1a208.57,208.57,0,0,0-4.32-21.89l-.32-1.9a6.14,6.14,0,0,0-.84-4l-.36-3.13c-1-5.18-1.45-10.49-3.3-15.5l.21-.22c0-2.48-1.22-3.64-3.64-4.36-5-1.5-9.81-3.42-14.7-5.16Z" transform="translate(-12.65 -34.9)"/><path class="cls-1" d="M233.78,64.79q8.21,21.88-2.47,42.68l-.77,1.4a83,83,0,0,1-12.16,13.52l-1.61,1.11c-13.93,9-28.8,10.78-44.56,5.88l-7-3.25A88.18,88.18,0,0,1,153.68,117l-7.2-9.57q-1.17-2.41-2.33-4.83c-2.79-8.14-4.55-16.41-3.34-25.08.19-1.56.37-3.12.55-4.68a80.06,80.06,0,0,1,8.09-17.77h0A55,55,0,0,1,178,36l3.14-.36,1-.2,3.77-.55a52.19,52.19,0,0,1,36,12.9A71.72,71.72,0,0,1,233.78,64.79ZM192.06,96.21a134.87,134.87,0,0,0,13.25-13.37l.68-.68c2.86-2.72,5.74-5.43,8.58-8.18,1.91-1.84,4.46-3.85,3.1-6.68-1.5-3.14-3.47-6.44-7.82-6.47-2.62-.47-3.82,1.62-5.29,3.06-6.47,6.4-12.82,12.92-19.34,19.26-1.84,1.78-3.09,4.37-5.94,5-2.51-2.61-4.91-5.33-7.54-7.81-3.27-3.1-6.06-1.88-8.92,1s-4.38,5.54-1.17,8.88c3,3.08,6.14,5.94,9.23,8.9,1.53,1.7,3.08,3.39,4.6,5.11,3.1,3.53,6.09,3.28,9.14-.11C187,101.41,189.57,98.83,192.06,96.21Z" transform="translate(-12.65 -34.9)"/><path class="cls-1" d="M184.77,226.29c6.76,11.77,3.58,23.07-7.56,26.89-5.8,2-11.05.55-16-2.54l-.87-.77c-5.22-5.81-6.5-12.39-3.91-19.74a31.58,31.58,0,0,1,7.63-7.88c7.81-3.19,14.7-1.71,20.76,4Z" transform="translate(-12.65 -34.9)"/><path class="cls-1" d="M88.69,239.85,88.46,238a21.66,21.66,0,0,1,6.17-13.75l-.07.07c11.57-6.53,19.2-4.78,26.53,6.06l.49,1.59c1.62,5.7.4,10.93-2.63,15.86l-.76.91c-4.76,4.52-10.47,5.95-16.85,5.16-4.94-2.06-9-5.11-11.36-10.07Z" transform="translate(-12.65 -34.9)"/></svg>