<svg id="Layer_1" data-name="Layer 1" xmlns="http://www.w3.org/2000/svg" viewBox="0 0 165.21 148.56"><defs><style>.cls-1{fill:#231f20;}</style></defs><path class="cls-1" d="M130.53,47.79A35.09,35.09,0,1,1,95.42,12.65,35.05,35.05,0,0,1,130.53,47.79ZM77.29,55.45c0,3.4,0,6.69,0,10a2,2,0,0,0,1.48,2c.84.32,1.7.6,2.56.86a49.39,49.39,0,0,0,9.79,1.89c1,.09,1,.1,1,1.12v4.78c0,.27,0,.54.37.52a52,52,0,0,0,6-.14c.47-.08.64-.25.63-.74,0-1.57,0-3.14,0-4.71,0-.71.23-.95.87-1.08,1-.21,2-.49,3-.76a15.56,15.56,0,0,0,6.8-3.6,12.65,12.65,0,0,0,3.77-8.61A11.49,11.49,0,0,0,111,48.16a19.44,19.44,0,0,0-6.47-4.59c-2.68-1.29-5.54-2.14-8.28-3.29a26.19,26.19,0,0,1-4.32-2,2.45,2.45,0,0,1-.95-2.72c.27-1,.84-1.42,2-1.57a25.51,25.51,0,0,1,3.71-.11c4.1.07,8.1.63,11.76,2.68.32.18.47.16.62-.21q1.83-4.5,3.71-9c.17-.42.07-.58-.31-.75a34.71,34.71,0,0,0-4.82-1.75,44.21,44.21,0,0,0-7.56-1.43c-.69-.08-1-.28-.94-1,0-1-.08-1.95-.11-2.92,0-.43-.12-.64-.62-.63-1.9,0-3.81,0-5.71,0-.41,0-.54.13-.53.53,0,1,0,2.05,0,3.07,0,.61-.15.86-.76,1-1.77.37-3.54.74-5.27,1.28-3.11,1-5.87,2.49-7.39,5.52a14.14,14.14,0,0,0-.67,11.29c1.09,3.21,3.5,5.31,6.37,6.93a70.32,70.32,0,0,0,9.24,3.95,23.14,23.14,0,0,1,5,2.46,2.54,2.54,0,0,1,1.29,2,2.71,2.71,0,0,1-2.4,2.83,16.22,16.22,0,0,1-5.81.23,41.82,41.82,0,0,1-10.22-2.77Z" transform="translate(-8.41 -12.65)"/><path class="cls-1" d="M173.62,33c-1.43,5.65-2.73,11.25-3.91,16.87A169.87,169.87,0,0,0,166.82,67a21.45,21.45,0,0,0-.18,3.21,1.77,1.77,0,0,1,0,.56c-.17.59-.38.63-.81.19-1-1-2-2.07-3-3.08-2.8-2.83-5.61-5.64-8.4-8.47-.35-.35-.53-.38-.89,0q-9.28,9.4-18.61,18.77L122.18,91q-10.84,10.92-21.68,21.86-2.37,2.37-4.71,4.79c-.29.3-.45.39-.81,0q-8.12-8.25-16.25-16.48-5-5.05-10-10.14c-.36-.37-.51-.22-.78,0-3.62,3.62-7.26,7.22-10.88,10.84q-21.27,21.27-42.53,42.55c-.41.41-.61.46-1,0-1.61-2-3.24-3.93-4.9-5.86-.39-.45-.35-.68.05-1.08q7.21-7.17,14.41-14.38L67.43,78.81c.4-.41.81-1.1,1.23-1.11s.82.7,1.22,1.11L89.77,99c1.45,1.48,2.93,2.93,4.33,4.45.47.5.69.54,1.18,0,4-4.07,8.07-8.1,12.12-12.14l32.3-32.25c2.33-2.32,4.65-4.65,7-7,.38-.38.37-.56,0-.93q-5.82-5.49-11.6-11c-.15-.15-.39-.26-.32-.51s.4-.31.66-.33c2.09-.12,4.17-.25,6.25-.5,4.47-.53,8.89-1.27,13.31-2.08q9.22-1.69,18.36-3.77Z" transform="translate(-8.41 -12.65)"/><path class="cls-1" d="M166.78,116.67q0,19.37,0,38.73a9,9,0,0,1-.25,2.19,4,4,0,0,1-4,3.44,73.34,73.34,0,0,1-10.27,0,4.32,4.32,0,0,1-4.24-4.35c0-.55-.06-1.1-.06-1.64q0-27,0-54.09c0-4.4,0-8.81,0-13.21s-.1-8.66-.11-13c0-3,.94-5.6,3.53-7.39a5.59,5.59,0,0,0,1.33-1.57c.53-.77.53-.77,1.24-.21a63.17,63.17,0,0,1,6,5.8,26.65,26.65,0,0,0,6.47,5.21c.35.18.28.45.28.72,0,2.48,0,5,0,7.43Z" transform="translate(-8.41 -12.65)"/><path class="cls-1" d="M143.36,116.42q0,19.29,0,38.58a11.47,11.47,0,0,1-.21,2.42A4.15,4.15,0,0,1,139,161a72.87,72.87,0,0,1-10.13,0,4.19,4.19,0,0,1-4.1-4.3c-.08-3.23,0-6.47-.06-9.71,0-3.57,0-7.15,0-10.72-.13-13.5,0-27-.06-40.51a3.91,3.91,0,0,1,1.26-3c5.43-5.4,10.82-10.87,16.23-16.29.21-.22.33-.67.83-.46s.4.58.4,1Z" transform="translate(-8.41 -12.65)"/><path class="cls-1" d="M54.74,133.66q0-11.22,0-22.43a3.05,3.05,0,0,1,.92-2.3q5.9-5.84,11.74-11.7c.45-.45.71-.23,1.06,0a11.81,11.81,0,0,1,5.13,10.08c-.07,5.18-.34,10.37-.26,15.56.15,10.57.1,21.14.14,31.71a12.59,12.59,0,0,1-.33,3.18A4.14,4.14,0,0,1,69.05,161a75.29,75.29,0,0,1-9.85,0c-2.84-.18-4.44-2-4.44-4.81V133.66Z" transform="translate(-8.41 -12.65)"/><path class="cls-1" d="M120.05,128.24v27.65a6.81,6.81,0,0,1-.34,2.24,4.18,4.18,0,0,1-3.79,2.9,64.36,64.36,0,0,1-7.35.14,16,16,0,0,1-3.9-.28,4.16,4.16,0,0,1-3.22-4.17c-.17-12.76-.07-25.53-.1-38.29a2.57,2.57,0,0,1,.79-2q8.37-8.38,16.74-16.8c.18-.18.28-.6.71-.41a.85.85,0,0,1,.49.91q0,14,0,28.08Z" transform="translate(-8.41 -12.65)"/><path class="cls-1" d="M96.75,122.88V125c0,9.28,0,18.57,0,27.86a32.24,32.24,0,0,1-.1,4.28A4.27,4.27,0,0,1,92.71,161a73.31,73.31,0,0,1-7.56.13,17.69,17.69,0,0,1-3.34-.18c-2.45-.47-3.74-2.12-3.75-4.81q0-21.36,0-42.72c0-1.64,0-3.28,0-4.92a2.64,2.64,0,0,1,0-.63c.2-.61.45-.66.89-.21l14.31,14.48c.12.12.22.25.33.37C94.77,123.77,95.32,123.84,96.75,122.88Z" transform="translate(-8.41 -12.65)"/><path class="cls-1" d="M50.14,115v.68q0,11.72,0,23.43c0,2.38-.1,4.76-.07,7.13,0,3.26.18,6.52.22,9.78a5,5,0,0,1-3.87,5,11,11,0,0,1-2.56.18c-2.74,0-5.47.08-8.21-.11a4.12,4.12,0,0,1-4.14-4.34c-.17-7.69-.05-15.38-.09-23.07a.93.93,0,0,1,.32-.81c6.35-5.52,12.08-11.67,18-17.64C49.84,115.1,49.9,115,50.14,115Z" transform="translate(-8.41 -12.65)"/></svg>