<svg id="Layer_1" data-name="Layer 1" xmlns="http://www.w3.org/2000/svg" viewBox="0 0 208.18 207.83"><defs><style>.cls-1{fill:#080808;}.cls-2{fill:#0e0f0f;}</style></defs><path class="cls-1" d="M189,30.82c11-.17,21.65,1.16,31.81,5.54a24.8,24.8,0,0,1,4.86,2.57c6.62,4.76,6.54,10.56-.41,14.92-8.66,5.43-18.53,6.91-28.45,7.64-14.09,1-27.95-.21-41-6.07-4.14-1.86-8.29-4.45-8.18-9.47.1-4.71,4.15-7.13,8.09-9C166.27,32.13,177.5,30.71,189,30.82Z" transform="translate(-22.54 -30.8)"/><path class="cls-1" d="M63.34,61.87C75,62,85.72,63.05,95.86,67.48c4.59,2,9.74,4.29,9.75,10.08,0,5.54-5,7.92-9.43,9.74C83,92.72,69.1,93.89,55,92.55c-8.61-.81-17.16-2.14-24.92-6.29-3.58-1.91-7.27-4.11-7.22-8.91s3.79-6.95,7.41-8.76C40.89,63.27,52.37,62.08,63.34,61.87Z" transform="translate(-22.54 -30.8)"/><path class="cls-1" d="M126.42,114.13c11.14-.24,22.06,1,32.35,5.55,4.41,1.95,9.34,4.27,9.32,9.81s-5,8.14-9.41,9.77c-21.54,7.85-43.17,8-64.71-.25a8.08,8.08,0,0,1-1.5-.67c-3.43-2.2-7.39-4.28-7.32-9s3.79-6.9,7.45-8.79c8.16-4.23,17.05-5.64,26.06-6.42C121.22,113.94,123.83,114.13,126.42,114.13Z" transform="translate(-22.54 -30.8)"/><path class="cls-1" d="M85,200.25c13,18.55,69.77,18.7,83.24.06,0,7.51.19,14.45-.07,21.39-.17,4.48-3.49,7-7,9.25-7,4.44-14.94,6.17-23,7-14.4,1.45-28.66,1-42.28-4.88-7.48-3.22-12-8-11-16.92C85.5,211.11,85,206,85,200.25Z" transform="translate(-22.54 -30.8)"/><path class="cls-1" d="M168.28,138.22c0,6.5-.14,12.59.05,18.68.15,4.74-1.92,8.07-5.66,10.67-8.14,5.66-17.56,7.26-27.09,8.24-13.56,1.4-26.86.06-39.57-5.16-7.48-3.07-12.09-8-11.07-16.94.56-4.92.1-10,.1-15.44,11.66,12.06,26.47,13.53,41.56,13.52S156.36,150.34,168.28,138.22Z" transform="translate(-22.54 -30.8)"/><path class="cls-1" d="M147.39,54.7c13.42,18,67.78,18.88,83.07.47,0,7.63.51,14.79-.16,21.83-.55,5.77-5.72,8.38-10.45,10.33-12.48,5.17-25.6,6.6-39,5.31-8.42-.81-16.7-2.34-24.41-6.19-6.22-3.1-9.64-7.56-9.14-14.86C147.68,66.26,147.39,60.89,147.39,54.7Z" transform="translate(-22.54 -30.8)"/><path class="cls-1" d="M168.28,169.34c0,6.21-.28,12,.08,17.67.39,6.18-2.46,10.08-7.49,13-7.33,4.25-15.4,6-23.64,6.83-14.09,1.45-28,.6-41.25-5-7.5-3.15-12-8-11-16.93.56-4.93.1-10,.1-15.52,11.67,12.15,26.47,13.54,41.59,13.51S156.44,181.62,168.28,169.34Z" transform="translate(-22.54 -30.8)"/><path class="cls-1" d="M230.47,86.48c0,7.42.33,14.56-.12,21.64-.3,4.68-4.24,7.19-8,9.15-10.55,5.46-22,6.85-33.69,6.93-6,0-10.85-.17-14.93-6.39-4.66-7.11-13.29-9.49-21.44-11.32-3.55-.81-5.46-1.81-5-6,.5-4.56.12-9.22.12-14.21,11.6,11.88,26.39,13.38,41.55,13.42S218.6,98.3,230.47,86.48Z" transform="translate(-22.54 -30.8)"/><path class="cls-1" d="M105.94,86.1c0,5.32-.32,10.26.11,15.15.3,3.48-1.39,4.47-4.14,5a47.09,47.09,0,0,0-19.08,8.12c-1.47,1.09-3.44,2.22-4,3.75-2.27,6.5-7.46,6-12.69,6-11.14.12-22-1.13-32.38-5.48-7.5-3.15-12.14-7.87-11.09-16.83.57-4.91.1-10,.1-15.34C34.62,98.3,49.39,99.72,64.56,99.69S94.26,98.16,105.94,86.1Z" transform="translate(-22.54 -30.8)"/><path class="cls-2" d="M22.79,117.25c8.94,10.32,20.55,12.1,32.21,13.4a104,104,0,0,0,15.49.08c2.94-.13,4.35.38,4.19,3.78-.28,5.71-.14,11.45-.05,17.17,0,2.23-.61,3.39-3.07,3.5-13.16.56-26.13-.09-38.42-5.53-7-3.08-11.42-7.62-10.45-16.12C23.27,128.43,22.79,123.21,22.79,117.25Z" transform="translate(-22.54 -30.8)"/><path class="cls-2" d="M230.52,116.47c0,8.13,0,14.75,0,21.36,0,5.47-3.79,8.27-7.86,10.45-10.46,5.62-21.88,7.11-33.6,7-10.35-.07-10.38-.05-10.33-10.15,0-4.59-1.47-10.51.8-13.39,2.44-3.1,8.61-.62,13.14-.78,9.47-.33,18.63-1.74,27.33-5.64A21.73,21.73,0,0,0,230.52,116.47Z" transform="translate(-22.54 -30.8)"/><path class="cls-2" d="M22.79,148.52c8.59,10,19.78,11.88,31.07,13.21,5.66.67,11.41,1.11,17.13.18,2.42-.39,3.77.17,3.67,3.11-.2,5.91-.08,11.83,0,17.74,0,2-.09,3.47-2.85,3.58-13,.5-25.77,0-38-5.16-7.45-3.18-12.17-7.83-11.1-16.82C23.28,159.35,22.79,154.21,22.79,148.52Z" transform="translate(-22.54 -30.8)"/><path class="cls-2" d="M230.48,147.66c0,8.56.23,15.7-.09,22.81-.19,4.31-3.66,6.8-7,8.67-13.26,7.36-27.76,7.8-42.42,7.14-1.74-.08-2.2-1-2.2-2.49q0-9.69,0-19.4c0-4,2.92-2.41,4.78-2.31,11.9.67,23.56-.31,34.74-4.73C222.72,155.58,227,153.42,230.48,147.66Z" transform="translate(-22.54 -30.8)"/><path class="cls-2" d="M230.53,179.05c0,6.94-.42,12.52.11,18,.7,7.34-3.16,11.42-9,14.29-10.32,5.08-21.42,6.45-32.76,6.35-10.16-.09-10.16-.14-10.15-10.32,0-4.44-1.55-9.92.49-13,2.38-3.65,8-.06,12.31-.56,9.15-1.08,18.35-1.62,27-5.27C222.92,186.64,227,184.36,230.53,179.05Z" transform="translate(-22.54 -30.8)"/><path class="cls-2" d="M22.79,179.54c8,9.71,18.33,11.72,28.68,13.15,6.51.9,13.2,1.92,19.85.4,2.29-.52,3.38.16,3.32,2.77-.14,6.1-.06,12.2,0,18.3,0,1.8-.08,3.12-2.53,3.25-13.36.74-26.49.18-39-5.37-7.1-3.15-11.3-7.72-10.39-16.14C23.24,190.81,22.79,185.62,22.79,179.54Z" transform="translate(-22.54 -30.8)"/></svg>