<svg id="Layer_1" data-name="Layer 1" xmlns="http://www.w3.org/2000/svg" viewBox="0 0 221.18 158.85"><defs><style>.cls-1{fill:#231f20;}</style></defs><path class="cls-1" d="M140.63,140.24c-1.39-2.64-2.72-5.16-4-7.69-3.62-6.89-7.25-13.79-10.83-20.7a1.84,1.84,0,0,0-1.68-1.15q-4.83-.36-9.65-.82a1.47,1.47,0,0,0-1.3.6c-5.41,5.48-10.61,11.19-16.3,16.38-8.06,7.35-17.36,7.74-25.76,1.7-4.54-3.27-5.27-8-4-13.14,1.41-6,4.68-11,8.27-15.82A122.89,122.89,0,0,1,88.68,84.69C91,82.43,93,79.8,95.62,77.77A26.33,26.33,0,0,1,110,71.91a257.26,257.26,0,0,1,27.49-1c7,.21,13.28,2.32,19.47,5.21,5.73,2.67,11.46,5.32,17.1,8.17,1,.5,1.3.47,1.51-.77a15.54,15.54,0,0,1,15.75-13.32c6.41,0,12.83,0,19.24,0A5,5,0,0,1,212.07,80a8.58,8.58,0,0,1-2.47.25q-9,0-18,0c-3.85,0-5.76,1.93-5.76,5.8,0,10.88,0,21.77,0,32.66,0,1.39-.69,1.87-1.81,1.82a36.49,36.49,0,0,0-7.16.58c-1,.16-1.23-.1-1.23-1.09,0-7.7,0-15.41.05-23.11a2.14,2.14,0,0,0-1.38-2.32c-6.86-3.29-13.78-6.45-20.69-9.63a44.67,44.67,0,0,0-19.84-4.06c-8,.13-16,.27-23.93.66-3.83.19-7,2.21-9.55,4.84-5.82,5.91-11.67,11.8-16.63,18.49a48.38,48.38,0,0,0-5.18,8.32,14.38,14.38,0,0,0-1.34,4.49,4.31,4.31,0,0,0,2.66,4.69,7.41,7.41,0,0,0,5.66.21A13.73,13.73,0,0,0,91,119.27c6.05-6.15,12.12-12.27,18.16-18.43a2.54,2.54,0,0,1,2.3-.83c6,.55,11.94,1.06,17.92,1.48a3,3,0,0,1,2.81,1.87q7.45,14.44,15.07,28.79c.49.91.46,1.39-.37,2A59.14,59.14,0,0,0,140.63,140.24Z" transform="translate(-12.07 -67.94)"/><path class="cls-1" d="M45.63,158.32c.26,2.18-1.06,3.54-2.32,4.88a15.57,15.57,0,0,1-12,5.28c-4.66-.06-9.33,0-14,0a5,5,0,0,1-5-6.46,5.1,5.1,0,0,1,5-3.68c4.71,0,9.41.05,14.12.05,3.71,0,5.64-2,5.64-5.62V83.68C37,79.94,35,78,31.26,78q-6.93,0-13.85,0a5,5,0,0,1-.81-10A9.05,9.05,0,0,1,18,68c4.75,0,9.5,0,14.26,0,7,0,11.36,3.2,13.4,9.9.3,1,.79,1,1.58,1H81.13c.16.64-.31.91-.56,1.24-2,2.5-4,5-5.92,7.49a2.15,2.15,0,0,1-2,.92c-8.4,0-16.79,0-25.19,0C46.24,88.46,46,88.8,46,90c0,17.8-.07,35.6-.24,53.41a5.46,5.46,0,0,0,2,4.56,181.83,181.83,0,0,1,27.19,31.61c.86,1.25,1.76,2.48,2.66,3.71a5,5,0,0,0,7,1.38c2.3-1.58,2.8-4.39,1.24-7-2.09-3.46-.32-7.53,3.51-8A5,5,0,0,1,94.27,172c1.85,2.59,3.69,5.19,5.56,7.76a5,5,0,1,0,8.3-5.57c-1.61-2.65-1-5.65,1.33-7.19s5.34-.89,7.15,1.63,3.61,5,5.38,7.54a4.75,4.75,0,0,0,3.91,2.27c.77,0,1,.27,1,1a40.37,40.37,0,0,0,.78,7.83c.19.87-.09,1.16-.93,1.17a14.62,14.62,0,0,1-9-2.5c-.77-.54-1.12-.48-1.71.27a15,15,0,0,1-20.65,3.17c-.68-.46-1-.47-1.51.22a15.1,15.1,0,0,1-24.54-.52c-6-8.2-11.65-16.62-17.82-24.67A37,37,0,0,0,45.63,158.32Z" transform="translate(-12.07 -67.94)"/><path class="cls-1" d="M183.33,127.19c27.64.08,50.08,22.52,49.92,49.93a49.95,49.95,0,1,1-49.92-49.93Zm-.09,9.67c-22,0-40.2,18-40.22,39.67a40.27,40.27,0,1,0,40.22-39.67Z" transform="translate(-12.07 -67.94)"/><path class="cls-1" d="M27.41,148.35a5,5,0,1,1,5.05-5A5,5,0,0,1,27.41,148.35Z" transform="translate(-12.07 -67.94)"/><path class="cls-1" d="M127.69,167c-1.34-1.93-2.59-3.52-3.59-5.25a4.88,4.88,0,0,1,.73-5.53,5.07,5.07,0,0,1,5.29-1.44c.53.18,1.06.28.72,1.11A58.16,58.16,0,0,0,127.69,167Z" transform="translate(-12.07 -67.94)"/><path class="cls-1" d="M187,167.41c0,1.8.05,3.6,0,5.39,0,.93.3,1.27,1.19,1.45a45.06,45.06,0,0,1,9.45,3,10.79,10.79,0,0,1,3.64,16.9c-3.32,4-7.78,5.81-12.72,6.63-1.19.19-1.67.52-1.57,1.78.12,1.56,0,3.13,0,4.7,0,.72-.11,1.11-1,1.08-1.71-.06-3.42-.05-5.13,0-.66,0-.88-.21-.86-.87,0-1.52-.12-3.06.05-4.56s-.48-1.91-1.85-2.09a21.73,21.73,0,0,1-9.85-3.76,14.21,14.21,0,0,1-4.76-5.47c-.43-.92-.53-1.45.72-1.71a39.94,39.94,0,0,0,4.52-1.27,1.65,1.65,0,0,1,1.92.46c2.37,2.23,5.36,3.14,8.49,3.71.65.11.78-.19.78-.76,0-3.65,0-7.29,0-10.93,0-.74-.32-.92-1-1a37.94,37.94,0,0,1-9.47-3c-8.28-4-9.43-13.94-2.29-19.76a22,22,0,0,1,11.38-4.63c1-.13,1.42-.45,1.35-1.53-.09-1.56,0-3.13,0-4.7,0-.74.14-1.09,1-1.06,1.66.06,3.32.05,5,0,.83,0,1,.34,1,1.07,0,1.57,0,3.14,0,4.71,0,1,.15,1.41,1.29,1.57A21.9,21.9,0,0,1,199,157.18a14.54,14.54,0,0,1,3.51,4.06c.39.66.37,1-.42,1.34-1.68.64-3.34,1.34-5,2a1.18,1.18,0,0,1-1.47-.22,15.58,15.58,0,0,0-7.71-3.49c-.81-.17-.95.1-.94.82C187,163.63,187,165.52,187,167.41Zm-6.93-.84c0-1.65,0-3.31,0-5,0-.65-.16-.92-.87-.78a16.86,16.86,0,0,0-8.16,3.46c-1.88,1.63-1.87,2.92,0,4.54a17,17,0,0,0,8.17,3.43c.77.15.83-.26.83-.84C180.07,169.79,180.08,168.18,180.08,166.57ZM187,187.08v4.84c0,.47,0,.94.72.79a16.15,16.15,0,0,0,8.08-3.63c1.51-1.4,1.51-2.6,0-4a15.87,15.87,0,0,0-8-3.61c-.65-.13-.91.08-.89.77C187,183.85,187,185.47,187,187.08Z" transform="translate(-12.07 -67.94)"/></svg>