<svg id="Layer_1" data-name="Layer 1" xmlns="http://www.w3.org/2000/svg" viewBox="0 0 191.84 251.82"><defs><style>.cls-1{fill:#fff;}</style></defs><path class="cls-1" d="M143,7.36c3.72,1.32,7.44,2.51,10.58,5.12,5.18,4.3,7.09,10.2,8.53,16.39a48.59,48.59,0,0,1,1.36,5.7c.23,2.12,1.3,2.34,3.1,2.34,3.67,0,7.37-.42,11,.43A21.47,21.47,0,0,1,193.08,50a2.51,2.51,0,0,0,2.77,1.66c4.4,0,8.83-.4,13.16,1a22.26,22.26,0,0,1,15.55,20.23c0,.82,0,1.64,0,2.46q0,80,0,160c0,14.55-9.18,23.76-23.72,23.76-48.09,0-96.19-.15-144.29.1C43,259.25,32.68,249,32.75,235.3c.24-53.34.09-106.68.1-160,0-14.35,9.29-23.66,23.59-23.67h.24c4.41.62,7.31-.43,9.73-5,3.42-6.41,9.78-9.38,17.12-9.74,2.54-.13,5.09-.13,7.62,0,1.65.09,2.43-.28,2.79-2.09.75-3.75,1.76-7.46,2.83-11.13,2.38-8.09,7.68-13.26,15.77-15.62.49-.14,1.23.09,1.43-.69Zm66.87,148.06V135q0-30.23,0-60.45c0-6.2-3.2-8.25-12.47-8.21-2.21,0-2.21,0-2.26,6.83,0,4.94-3,7.91-8,7.91q-58.37,0-116.72,0a8.43,8.43,0,0,1-2.9-.32c-3.7-1.28-5.17-3.77-5.17-9,0-5.47,0-5.47-5.35-5.47-6.71,0-9.39,2.67-9.39,9.33V234.93c0,6.71,2.66,9.4,9.32,9.4H200.43c6.76,0,9.4-2.62,9.41-9.29ZM128.73,66.36q22.61,0,45.21,0c2.09,0,5,.93,6.07-.44s.35-4.06.32-6.18c-.07-5-3.12-8-8.15-8.1-4.34,0-8.68,0-13,0-4.61,0-7.17-1.94-8.32-6.37-1.37-5.29-2.65-10.6-4-15.89s-3.81-7.23-9.19-7.24H120c-5.7,0-8.09,1.92-9.46,7.5q-1.9,7.71-3.89,15.4C105.38,49.8,103,51.6,98,51.61c-4.34,0-8.68-.06-13,0-4.74.07-7.76,3.13-7.89,7.86,0,1.56.14,3.13,0,4.67-.23,1.9.48,2.25,2.27,2.24C95.8,66.33,112.26,66.36,128.73,66.36Z" transform="translate(-32.75 -7.36)"/><path class="cls-1" d="M121.32,103a7.53,7.53,0,0,1-2.26,6.09c-9.72,9.74-19.43,19.5-29.21,29.18-3.23,3.2-7.48,3.19-10.73,0q-7.32-7.11-14.43-14.42c-3.16-3.23-3.16-7.8-.16-10.74s7.38-2.85,10.58.19c2.55,2.43,5.08,4.89,7.45,7.49,1.38,1.5,2.15,1.73,3.75.09,7.25-7.46,14.64-14.79,22-22.09,4.37-4.31,10.79-2.93,12.63,2.62A10.07,10.07,0,0,1,121.32,103Z" transform="translate(-32.75 -7.36)"/><path class="cls-1" d="M84.51,184.85a7.47,7.47,0,0,1-5.57-2.41C74.18,177.7,69.4,173,64.7,168.18c-3.16-3.24-3.17-7.8-.17-10.74s7.44-2.84,10.74.34c2.54,2.45,5.12,4.87,7.45,7.5,1.44,1.62,2.2,1.3,3.57-.09q10.93-11.13,22-22.08c4.38-4.31,10.79-2.94,12.64,2.61a6.93,6.93,0,0,1-1.76,7.46Q104.51,168,89.69,182.72A6.82,6.82,0,0,1,84.51,184.85Z" transform="translate(-32.75 -7.36)"/><path class="cls-1" d="M84.58,229.09a7.11,7.11,0,0,1-5.5-2.27c-4.83-4.78-9.66-9.56-14.41-14.43a7.38,7.38,0,0,1-.11-10.74c3-2.87,7.37-2.81,10.57.24,2.67,2.55,5.29,5.14,7.81,7.84,1.15,1.23,1.81,1.27,3,0q11.11-11.3,22.4-22.42c4.36-4.3,10.8-2.88,12.62,2.68a6.8,6.8,0,0,1-1.65,7.26q-14.88,15-29.88,29.89A6.55,6.55,0,0,1,84.58,229.09Z" transform="translate(-32.75 -7.36)"/><path class="cls-1" d="M165.59,111.1c7.21,0,14.41,0,21.62,0,4.71,0,7.92,3.1,7.87,7.49s-3.26,7.25-7.87,7.25q-21.61,0-43.24,0c-4.71,0-7.93-3.09-7.88-7.49,0-4.25,3.27-7.24,7.88-7.25C151.17,111.08,158.38,111.1,165.59,111.1Z" transform="translate(-32.75 -7.36)"/><path class="cls-1" d="M165.55,170.09c-7.2,0-14.41,0-21.62,0-4.59,0-7.8-3-7.84-7.28s3.19-7.46,7.91-7.46q21.63,0,43.25,0c4.59,0,7.8,3,7.83,7.28s-3.18,7.45-7.91,7.46C180,170.11,172.76,170.09,165.55,170.09Z" transform="translate(-32.75 -7.36)"/><path class="cls-1" d="M165.46,214.34c-7.21,0-14.41,0-21.62,0-4.54,0-7.75-3.09-7.75-7.37s3.21-7.36,7.76-7.36q21.75,0,43.49,0c4.54,0,7.75,3.09,7.74,7.37s-3.2,7.35-7.75,7.36C180,214.36,172.75,214.34,165.46,214.34Z" transform="translate(-32.75 -7.36)"/><path class="cls-1" d="M136.09,44.33a7.38,7.38,0,1,1-7.16-7.47A7.32,7.32,0,0,1,136.09,44.33Z" transform="translate(-32.75 -7.36)"/></svg>