<svg id="Layer_1" data-name="Layer 1" xmlns="http://www.w3.org/2000/svg" viewBox="0 0 226.9 235.94"><defs><style>.cls-1{fill:#fff;}</style></defs><path class="cls-1" d="M57.55,17.48c1,.24,2,.32,3,.56a19.08,19.08,0,1,1-7.38-.38c.21,0,.46,0,.62-.18Z" transform="translate(-11.47 -17.48)"/><path class="cls-1" d="M11.59,238h-.12V140.63a.05.05,0,0,1,.08,0c0,3,0,5.95,0,8.92q0,30.41,0,60.8,0,13.47,0,26.94C11.61,237.51,11.6,237.74,11.59,238Z" transform="translate(-11.47 -17.48)"/><path class="cls-1" d="M11.59,238c0-.23,0-.46,0-.69q0-13.47,0-26.94,0-30.4,0-60.8c0-3,0-5.95,0-8.92a108.83,108.83,0,0,1,2.82-18.92c1.38-6,2.83-12,4.25-17.94q3.28-13.85,6.57-27.68a46.29,46.29,0,0,1,1.62-6.28A15.82,15.82,0,0,1,39.4,59.31c7.27-1.32,16,3,19.2,11.15C62,79,65.42,87.66,68.94,96.21c.39,1,.79,1.92,1.2,2.86a4.61,4.61,0,0,0,2.52,2.5q8,3.18,15.91,6.78l.33.12a6.17,6.17,0,0,0-.64-1.37c-2.69-5.16-5.41-10.32-8.11-15.47a2,2,0,0,1,.75-3,2.15,2.15,0,0,1,3.06,1l16.17,30.15a9.11,9.11,0,0,1,1.19,5.75c-.1.73-.13.75-.83.57A6.45,6.45,0,0,1,97,123.53a7,7,0,0,1-.81-1.32c-.11.22-.22.4-.3.58-1.22,2.73-3.51,4-6.29,4.58a8.81,8.81,0,0,1-5.43-.75C78.24,124,72.24,121.48,66.26,119c-1.7-.71-3.43-1.34-5.07-2.17a12.2,12.2,0,0,1-5.41-6c-1.2-2.53-2.23-5.13-3.29-7.72-.05-.1-.1-.2-.16-.34a1.68,1.68,0,0,0-.28.79q-3.11,13-6.18,26.11-3.06,12.9-6.11,25.78a4.12,4.12,0,0,0-.1.92v26.32q0,28,0,55.92A15,15,0,0,1,35,249.88a12.89,12.89,0,0,1-8.53,3.52c-8.26.38-14.26-5.94-14.8-13.65C11.63,239.16,11.62,238.56,11.59,238Z" transform="translate(-11.47 -17.48)"/><path class="cls-1" d="M214.32,122.41H152.38c-.68,0-.68,0-.5-.67q4.51-16.26,9-32.5c.12-.41.13-.56-.38-.56-1.78,0-3.57,0-5.36,0-.38,0-.52.14-.62.49q-3.92,13.6-7.84,27.22c-.54,1.86-1.08,3.71-1.6,5.57-.1.34-.23.46-.59.45q-7.8,0-15.61,0c-.53,0-.49-.19-.38-.57q2-6.57,3.92-13.16c2.53-8.52,5-17,7.59-25.55a56.16,56.16,0,0,1,2.27-7.23c4-8.73,10.6-14.16,20.35-15.31a20.53,20.53,0,0,1,2.35-.1h35.83c8.32,0,14.82,3.58,19.82,10.1A26.89,26.89,0,0,1,225,79.8c2.55,8.81,5.21,17.59,7.83,26.38q2.3,7.74,4.61,15.48a2,2,0,0,0,.09.33c.16.33,0,.42-.31.42q-7.89,0-15.78,0c-.41,0-.45-.25-.52-.53L216,104.78q-2.25-7.78-4.49-15.57a.61.61,0,0,0-.7-.53c-1.77,0-3.53,0-5.3,0-.42,0-.51.07-.39.51q2.31,8.19,4.58,16.38t4.58,16.5C214.26,122.17,214.28,122.26,214.32,122.41Z" transform="translate(-11.47 -17.48)"/><path class="cls-1" d="M185.35,146.19q-25.89,0-51.78,0a9.45,9.45,0,0,0-6.77,2.63q-8.26,7.68-16.56,15.32-9.55,8.84-19.11,17.66c-.3.28-.46.29-.77,0q-4.22-4.2-8.48-8.37c-.38-.36-.37-.56,0-.92Q90.73,164,99.55,155.4t17.72-17.11a51.1,51.1,0,0,1,4.54-4.16,12.55,12.55,0,0,1,7.71-2.57H237.63c.8,0,.73-.12.73.75,0,4.41,0,8.83,0,13.24,0,.55-.16.65-.67.65Z" transform="translate(-11.47 -17.48)"/><path class="cls-1" d="M183,17.66a19,19,0,0,1,18.83,15.87,19.47,19.47,0,0,1-4,16,16.39,16.39,0,0,1-8.75,5.53,19.89,19.89,0,0,1-12.82-.46c-6.9-2.79-11.06-7.9-12.15-15.3a19,19,0,0,1,12.05-20.41A18.44,18.44,0,0,1,183,17.66Z" transform="translate(-11.47 -17.48)"/><path class="cls-1" d="M120.78,126.54c0,.2-.19.27-.3.37l-11.21,10.43L87,158.09C86,159,84.94,160,83.92,161c-.25.24-.38.26-.63,0-1.42-1.54-2.84-3.07-4.28-4.58-.25-.27-.21-.41,0-.64l19.89-18.5q8.3-7.72,16.59-15.45c.34-.33.51-.36.84,0,1.35,1.5,2.74,3,4.12,4.43Z" transform="translate(-11.47 -17.48)"/></svg>